Rosario-Regular.ufo
<glyph name="exclam" format="2">
  <advance width="329"/>
  <unicode hex="0021"/>
  <note>
exclam
</note>
  <outline>
    <contour>
      <point x="106" y="728" type="line"/>
      <point x="135" y="217" type="line"/>
      <point x="194" y="217" type="line"/>
      <point x="223" y="728" type="line"/>
    </contour>
    <contour>
      <point x="231" y="53" type="curve" smooth="yes"/>
      <point x="231" y="89"/>
      <point x="201" y="119"/>
      <point x="165" y="119" type="curve" smooth="yes"/>
      <point x="128" y="119"/>
      <point x="99" y="90"/>
      <point x="99" y="53" type="curve" smooth="yes"/>
      <point x="99" y="17"/>
      <point x="129" y="-13"/>
      <point x="165" y="-13" type="curve" smooth="yes"/>
      <point x="201" y="-13"/>
      <point x="231" y="17"/>
    </contour>
  </outline>
</glyph>
<glyph name="dollar" format="2">
  <advance width="536"/>
  <unicode hex="0024"/>
  <note>
dollar
</note>
  <outline>
    <contour>
      <point x="473" y="644" type="line"/>
      <point x="413" y="680"/>
      <point x="348" y="697"/>
      <point x="287" y="697" type="curve" smooth="yes"/>
      <point x="168" y="697"/>
      <point x="67" y="631"/>
      <point x="67" y="508" type="curve" smooth="yes"/>
      <point x="67" y="394"/>
      <point x="158" y="357"/>
      <point x="242" y="324" type="curve" smooth="yes"/>
      <point x="318" y="294"/>
      <point x="390" y="269"/>
      <point x="390" y="185" type="curve" smooth="yes"/>
      <point x="390" y="103"/>
      <point x="326" y="61"/>
      <point x="248" y="61" type="curve" smooth="yes"/>
      <point x="194" y="61"/>
      <point x="133" y="81"/>
      <point x="83" y="124" type="curve"/>
      <point x="47" y="42" type="line"/>
      <point x="116" y="6"/>
      <point x="188" y="-11"/>
      <point x="254" y="-11" type="curve" smooth="yes"/>
      <point x="385" y="-11"/>
      <point x="490" y="59"/>
      <point x="490" y="198" type="curve" smooth="yes"/>
      <point x="490" y="339"/>
      <point x="372" y="375"/>
      <point x="280" y="411" type="curve" smooth="yes"/>
      <point x="218" y="435"/>
      <point x="167" y="458"/>
      <point x="167" y="516" type="curve" smooth="yes"/>
      <point x="167" y="591"/>
      <point x="218" y="627"/>
      <point x="284" y="627" type="curve" smooth="yes"/>
      <point x="329" y="627"/>
      <point x="380" y="611"/>
      <point x="427" y="577" type="curve"/>
    </contour>
    <contour>
      <point x="273" y="13" type="line"/>
      <point x="227" y="13" type="line"/>
      <point x="186" y="-138" type="line"/>
      <point x="258" y="-138" type="line"/>
    </contour>
    <contour>
      <point x="259" y="668" type="line"/>
      <point x="307" y="668" type="line"/>
      <point x="347" y="812" type="line"/>
      <point x="273" y="812" type="line"/>
    </contour>
  </outline>
</glyph>
<glyph name="percent" format="2">
  <advance width="907"/>
  <unicode hex="0025"/>
  <note>
percent
</note>
  <outline>
    <contour>
      <point x="613" y="730" type="line"/>
      <point x="240" y="-7" type="line"/>
      <point x="304" y="-7" type="line"/>
      <point x="679" y="730" type="line"/>
    </contour>
    <contour>
      <point x="214" y="730" type="curve" smooth="yes"/>
      <point x="97" y="730"/>
      <point x="43" y="636"/>
      <point x="43" y="520" type="curve" smooth="yes"/>
      <point x="43" y="405"/>
      <point x="88" y="309"/>
      <point x="204" y="309" type="curve" smooth="yes"/>
      <point x="321" y="309"/>
      <point x="375" y="405"/>
      <point x="375" y="520" type="curve" smooth="yes"/>
      <point x="375" y="635"/>
      <point x="331" y="730"/>
    </contour>
    <contour>
      <point x="209" y="678" type="curve" smooth="yes"/>
      <point x="295" y="678"/>
      <point x="308" y="595"/>
      <point x="308" y="520" type="curve" smooth="yes"/>
      <point x="308" y="444"/>
      <point x="295" y="362"/>
      <point x="209" y="362" type="curve" smooth="yes"/>
      <point x="124" y="362"/>
      <point x="109" y="444"/>
      <point x="109" y="520" type="curve" smooth="yes"/>
      <point x="109" y="594"/>
      <point x="125" y="678"/>
    </contour>
    <contour>
      <point x="703" y="411" type="curve" smooth="yes"/>
      <point x="586" y="411"/>
      <point x="532" y="317"/>
      <point x="532" y="201" type="curve" smooth="yes"/>
      <point x="532" y="86"/>
      <point x="577" y="-10"/>
      <point x="693" y="-10" type="curve" smooth="yes"/>
      <point x="810" y="-10"/>
      <point x="864" y="86"/>
      <point x="864" y="201" type="curve" smooth="yes"/>
      <point x="864" y="316"/>
      <point x="820" y="411"/>
    </contour>
    <contour>
      <point x="698" y="358" type="curve" smooth="yes"/>
      <point x="784" y="358"/>
      <point x="797" y="276"/>
      <point x="797" y="201" type="curve" smooth="yes"/>
      <point x="797" y="125"/>
      <point x="784" y="43"/>
      <point x="698" y="43" type="curve" smooth="yes"/>
      <point x="613" y="43"/>
      <point x="598" y="125"/>
      <point x="598" y="201" type="curve" smooth="yes"/>
      <point x="598" y="275"/>
      <point x="614" y="358"/>
    </contour>
    <contour>
      <point x="214" y="730" type="line"/>
      <point x="209" y="678" type="line"/>
      <point x="634" y="678" type="line"/>
      <point x="634" y="730" type="line"/>
    </contour>
  </outline>
</glyph>
<glyph name="ampersand" format="2">
  <advance width="661"/>
  <unicode hex="0026"/>
  <note>
ampersand
</note>
  <outline>
    <contour>
      <point x="595" y="327" type="curve"/>
      <point x="516" y="341" type="line"/>
      <point x="483" y="150"/>
      <point x="369" y="55"/>
      <point x="256" y="55" type="curve" smooth="yes"/>
      <point x="166" y="55"/>
      <point x="122" y="128"/>
      <point x="122" y="200" type="curve" smooth="yes"/>
      <point x="122" y="278"/>
      <point x="164" y="331"/>
      <point x="237" y="355" type="curve"/>
      <point x="211" y="416" type="line"/>
      <point x="85" y="366"/>
      <point x="28" y="279"/>
      <point x="28" y="185" type="curve" smooth="yes"/>
      <point x="28" y="84"/>
      <point x="98" y="-9"/>
      <point x="239" y="-9" type="curve" smooth="yes"/>
      <point x="413" y="-9"/>
      <point x="532" y="103"/>
    </contour>
    <contour>
      <point x="676" y="-2" type="curve"/>
      <point x="665" y="69" type="line"/>
      <point x="647" y="66"/>
      <point x="629" y="64"/>
      <point x="611" y="64" type="curve" smooth="yes"/>
      <point x="555" y="64"/>
      <point x="500" y="81"/>
      <point x="448" y="116" type="curve" smooth="yes"/>
      <point x="329" y="196"/>
      <point x="231" y="364"/>
      <point x="231" y="537" type="curve" smooth="yes"/>
      <point x="231" y="628"/>
      <point x="254" y="674"/>
      <point x="300" y="674" type="curve" smooth="yes"/>
      <point x="334" y="674"/>
      <point x="349" y="647"/>
      <point x="349" y="601" type="curve" smooth="yes"/>
      <point x="349" y="539"/>
      <point x="312" y="455"/>
      <point x="219" y="417" type="curve"/>
      <point x="240" y="357" type="line"/>
      <point x="378" y="417"/>
      <point x="438" y="521"/>
      <point x="438" y="607" type="curve" smooth="yes"/>
      <point x="438" y="687"/>
      <point x="388" y="738"/>
      <point x="306" y="738" type="curve" smooth="yes"/>
      <point x="191" y="738"/>
      <point x="139" y="641"/>
      <point x="139" y="522" type="curve" smooth="yes"/>
      <point x="139" y="343"/>
      <point x="245" y="156"/>
      <point x="378" y="59" type="curve" smooth="yes"/>
      <point x="439" y="15"/>
      <point x="515" y="-8"/>
      <point x="607" y="-8" type="curve" smooth="yes"/>
      <point x="629" y="-8"/>
      <point x="652" y="-6"/>
    </contour>
  </outline>
</glyph>
<glyph name="quotesingle" format="2">
  <advance width="226"/>
  <unicode hex="0027"/>
  <note>
quotesingle
</note>
  <outline>
    <contour>
      <point x="98" y="445" type="curve"/>
      <point x="127" y="445" type="line"/>
      <point x="155" y="560" type="line"/>
      <point x="155" y="738" type="line"/>
      <point x="71" y="738" type="line"/>
      <point x="71" y="560" type="line" smooth="yes"/>
      <point x="71" y="558"/>
      <point x="96" y="454"/>
    </contour>
  </outline>
</glyph>
<glyph name="parenright" format="2">
  <advance width="306"/>
  <unicode hex="0029"/>
  <note>
parenright
</note>
  <outline>
    <contour>
      <point x="262" y="302" type="curve" smooth="yes"/>
      <point x="262" y="466"/>
      <point x="195" y="620"/>
      <point x="88" y="743" type="curve"/>
      <point x="21" y="733" type="line"/>
      <point x="124" y="605"/>
      <point x="175" y="467"/>
      <point x="175" y="302" type="curve" smooth="yes"/>
      <point x="175" y="137"/>
      <point x="124" y="-1"/>
      <point x="21" y="-129" type="curve"/>
      <point x="88" y="-138" type="line"/>
      <point x="194" y="-15"/>
      <point x="262" y="138"/>
    </contour>
  </outline>
</glyph>
<glyph name="plus" format="2">
  <advance width="642"/>
  <unicode hex="002B"/>
  <note>
plus
</note>
  <outline>
    <contour>
      <point x="352" y="0" type="line"/>
      <point x="352" y="215" type="line"/>
      <point x="567" y="215" type="line"/>
      <point x="567" y="283" type="line"/>
      <point x="352" y="283" type="line"/>
      <point x="352" y="497" type="line"/>
      <point x="282" y="497" type="line"/>
      <point x="282" y="283" type="line"/>
      <point x="68" y="283" type="line"/>
      <point x="68" y="215" type="line"/>
      <point x="282" y="215" type="line"/>
      <point x="282" y="0" type="line"/>
    </contour>
  </outline>
</glyph>
<glyph name="period" format="2">
  <advance width="228"/>
  <unicode hex="002E"/>
  <note>
period
</note>
  <outline>
    <contour>
      <point x="174" y="56" type="curve" smooth="yes"/>
      <point x="174" y="92"/>
      <point x="144" y="122"/>
      <point x="108" y="122" type="curve" smooth="yes"/>
      <point x="71" y="122"/>
      <point x="42" y="93"/>
      <point x="42" y="56" type="curve" smooth="yes"/>
      <point x="42" y="20"/>
      <point x="72" y="-10"/>
      <point x="108" y="-10" type="curve" smooth="yes"/>
      <point x="144" y="-10"/>
      <point x="174" y="20"/>
    </contour>
  </outline>
</glyph>
<glyph name="slash" format="2">
  <advance width="326"/>
  <unicode hex="002F"/>
  <note>
slash
</note>
  <outline>
    <contour>
      <point x="264" y="727" type="line"/>
      <point x="-5" y="-9" type="line"/>
      <point x="64" y="-9" type="line"/>
      <point x="331" y="727" type="line"/>
    </contour>
  </outline>
</glyph>
<glyph name="zero" format="2">
  <advance width="580"/>
  <unicode hex="0030"/>
  <note>
zero
</note>
  <outline>
    <contour>
      <point x="296" y="509" type="curve" smooth="yes"/>
      <point x="140" y="509"/>
      <point x="49" y="397"/>
      <point x="49" y="248" type="curve" smooth="yes"/>
      <point x="49" y="100"/>
      <point x="129" y="-13"/>
      <point x="284" y="-13" type="curve" smooth="yes"/>
      <point x="439" y="-13"/>
      <point x="531" y="100"/>
      <point x="531" y="248" type="curve" smooth="yes"/>
      <point x="531" y="396"/>
      <point x="451" y="509"/>
    </contour>
    <contour>
      <point x="290" y="446" type="curve" smooth="yes"/>
      <point x="407" y="446"/>
      <point x="440" y="347"/>
      <point x="440" y="248" type="curve" smooth="yes"/>
      <point x="440" y="149"/>
      <point x="407" y="50"/>
      <point x="290" y="50" type="curve" smooth="yes"/>
      <point x="174" y="50"/>
      <point x="139" y="149"/>
      <point x="139" y="248" type="curve" smooth="yes"/>
      <point x="139" y="346"/>
      <point x="175" y="446"/>
    </contour>
  </outline>
</glyph>
<glyph name="two" format="2">
  <advance width="466"/>
  <unicode hex="0032"/>
  <note>
two
</note>
  <guideline x="516" y="446" angle="0"/>
  <outline>
    <contour>
      <point x="248" y="509" type="curve" smooth="yes"/>
      <point x="180" y="509"/>
      <point x="118" y="489"/>
      <point x="50" y="434" type="curve"/>
      <point x="95" y="381" type="line"/>
      <point x="139" y="421"/>
      <point x="195" y="446"/>
      <point x="238" y="446" type="curve" smooth="yes"/>
      <point x="277" y="446"/>
      <point x="306" y="425"/>
      <point x="306" y="374" type="curve" smooth="yes"/>
      <point x="306" y="289"/>
      <point x="237" y="204"/>
      <point x="31" y="57" type="curve"/>
      <point x="31" y="-1" type="line"/>
      <point x="405" y="-1" type="line"/>
      <point x="425" y="68" type="line"/>
      <point x="148" y="68" type="line"/>
      <point x="292" y="171"/>
      <point x="401" y="266"/>
      <point x="401" y="385" type="curve" smooth="yes"/>
      <point x="401" y="472"/>
      <point x="329" y="509"/>
    </contour>
  </outline>
</glyph>
<glyph name="three" format="2">
  <advance width="400"/>
  <unicode hex="0033"/>
  <note>
three
</note>
  <outline>
    <contour>
      <point x="212" y="510" type="curve" smooth="yes"/>
      <point x="149" y="510"/>
      <point x="77" y="485"/>
      <point x="22" y="439" type="curve"/>
      <point x="66" y="382" type="line"/>
      <point x="97" y="419"/>
      <point x="155" y="446"/>
      <point x="200" y="446" type="curve" smooth="yes"/>
      <point x="242" y="446"/>
      <point x="261" y="424"/>
      <point x="261" y="392" type="curve" smooth="yes"/>
      <point x="261" y="326"/>
      <point x="189" y="235"/>
      <point x="78" y="191" type="curve"/>
      <point x="101" y="143" type="line"/>
      <point x="123" y="150"/>
      <point x="145" y="154"/>
      <point x="164" y="154" type="curve" smooth="yes"/>
      <point x="220" y="154"/>
      <point x="262" y="122"/>
      <point x="262" y="54" type="curve" smooth="yes"/>
      <point x="262" y="-90"/>
      <point x="89" y="-145"/>
      <point x="-55" y="-152" type="curve"/>
      <point x="-50" y="-196" type="line"/>
      <point x="106" y="-201"/>
      <point x="358" y="-144"/>
      <point x="358" y="59" type="curve" smooth="yes"/>
      <point x="358" y="156"/>
      <point x="282" y="200"/>
      <point x="210" y="203" type="curve"/>
      <point x="304" y="258"/>
      <point x="352" y="324"/>
      <point x="352" y="400" type="curve" smooth="yes"/>
      <point x="352" y="465"/>
      <point x="305" y="510"/>
    </contour>
  </outline>
</glyph>
<glyph name="six" format="2">
  <advance width="526"/>
  <unicode hex="0036"/>
  <note>
six
</note>
  <guideline x="483" y="524" angle="90"/>
  <guideline x="387" y="524" angle="90"/>
  <guideline x="140" y="524" angle="90"/>
  <guideline x="44" y="524" angle="90"/>
  <outline>
    <contour>
      <point x="444" y="732" type="line"/>
      <point x="239" y="664"/>
      <point x="44" y="473"/>
      <point x="44" y="235" type="curve" smooth="yes"/>
      <point x="44" y="66"/>
      <point x="148" y="-13"/>
      <point x="259" y="-13" type="curve" smooth="yes"/>
      <point x="406" y="-13"/>
      <point x="483" y="104"/>
      <point x="483" y="214" type="curve" smooth="yes"/>
      <point x="483" y="312"/>
      <point x="421" y="405"/>
      <point x="293" y="405" type="curve" smooth="yes"/>
      <point x="242" y="405"/>
      <point x="185" y="386"/>
      <point x="141" y="346" type="curve"/>
      <point x="129" y="282" type="line"/>
      <point x="176" y="319"/>
      <point x="226" y="337"/>
      <point x="270" y="337" type="curve" smooth="yes"/>
      <point x="349" y="337"/>
      <point x="387" y="269"/>
      <point x="387" y="199" type="curve" smooth="yes"/>
      <point x="387" y="125"/>
      <point x="345" y="50"/>
      <point x="267" y="50" type="curve" smooth="yes"/>
      <point x="189" y="50"/>
      <point x="140" y="132"/>
      <point x="140" y="239" type="curve" smooth="yes"/>
      <point x="140" y="387"/>
      <point x="230" y="588"/>
      <point x="465" y="685" type="curve"/>
    </contour>
  </outline>
</glyph>
<glyph name="colon" format="2">
  <advance width="331"/>
  <unicode hex="003A"/>
  <note>
colon
</note>
  <outline>
    <contour>
      <point x="228" y="368" type="curve" smooth="yes"/>
      <point x="228" y="404"/>
      <point x="198" y="434"/>
      <point x="162" y="434" type="curve" smooth="yes"/>
      <point x="126" y="434"/>
      <point x="96" y="404"/>
      <point x="96" y="368" type="curve" smooth="yes"/>
      <point x="96" y="332"/>
      <point x="126" y="302"/>
      <point x="162" y="302" type="curve" smooth="yes"/>
      <point x="198" y="302"/>
      <point x="228" y="332"/>
    </contour>
    <contour>
      <point x="228" y="53" type="curve" smooth="yes"/>
      <point x="228" y="89"/>
      <point x="198" y="119"/>
      <point x="162" y="119" type="curve" smooth="yes"/>
      <point x="126" y="119"/>
      <point x="96" y="89"/>
      <point x="96" y="53" type="curve" smooth="yes"/>
      <point x="96" y="17"/>
      <point x="126" y="-13"/>
      <point x="162" y="-13" type="curve" smooth="yes"/>
      <point x="198" y="-13"/>
      <point x="228" y="17"/>
    </contour>
  </outline>
</glyph>
<glyph name="semicolon" format="2">
  <advance width="334"/>
  <unicode hex="003B"/>
  <note>
semicolon
</note>
  <outline>
    <contour>
      <point x="162" y="434" type="curve" smooth="yes"/>
      <point x="126" y="434"/>
      <point x="96" y="404"/>
      <point x="96" y="368" type="curve" smooth="yes"/>
      <point x="96" y="332"/>
      <point x="126" y="302"/>
      <point x="162" y="302" type="curve" smooth="yes"/>
      <point x="199" y="302"/>
      <point x="228" y="331"/>
      <point x="228" y="368" type="curve" smooth="yes"/>
      <point x="228" y="404"/>
      <point x="198" y="434"/>
    </contour>
    <contour>
      <point x="153" y="124" type="curve" smooth="yes"/>
      <point x="119" y="124"/>
      <point x="91" y="98"/>
      <point x="91" y="64" type="curve" smooth="yes"/>
      <point x="91" y="14"/>
      <point x="141" y="5"/>
      <point x="141" y="-22" type="curve" smooth="yes"/>
      <point x="141" y="-48"/>
      <point x="109" y="-75"/>
      <point x="92" y="-93" type="curve"/>
      <point x="126" y="-127" type="line"/>
      <point x="180" y="-88"/>
      <point x="228" y="-30"/>
      <point x="228" y="39" type="curve" smooth="yes"/>
      <point x="228" y="84"/>
      <point x="201" y="124"/>
    </contour>
  </outline>
</glyph>
<glyph name="greater" format="2">
  <advance width="630"/>
  <unicode hex="003E"/>
  <note>
greater
</note>
  <outline>
    <contour>
      <point x="66" y="72" type="line"/>
      <point x="66" y="-4" type="line"/>
      <point x="564" y="214" type="line"/>
      <point x="564" y="287" type="line"/>
      <point x="66" y="503" type="line"/>
      <point x="66" y="426" type="line"/>
      <point x="471" y="249" type="line"/>
    </contour>
  </outline>
</glyph>
<glyph name="question" format="2">
  <advance width="438"/>
  <unicode hex="003F"/>
  <note>
question
</note>
  <outline>
    <contour>
      <point x="189" y="723" type="curve" smooth="yes"/>
      <point x="144" y="723"/>
      <point x="85" y="708"/>
      <point x="51" y="687" type="curve"/>
      <point x="78" y="620" type="line"/>
      <point x="105" y="639"/>
      <point x="141" y="651"/>
      <point x="174" y="651" type="curve" smooth="yes"/>
      <point x="241" y="651"/>
      <point x="299" y="619"/>
      <point x="299" y="548" type="curve" smooth="yes"/>
      <point x="299" y="468"/>
      <point x="227" y="424"/>
      <point x="157" y="412" type="curve"/>
      <point x="157" y="217" type="line"/>
      <point x="222" y="217" type="line"/>
      <point x="222" y="360" type="line"/>
      <point x="318" y="392"/>
      <point x="387" y="453"/>
      <point x="387" y="554" type="curve" smooth="yes"/>
      <point x="387" y="667"/>
      <point x="290" y="723"/>
    </contour>
    <contour>
      <point x="186" y="119" type="curve" smooth="yes"/>
      <point x="149" y="119"/>
      <point x="120" y="90"/>
      <point x="120" y="53" type="curve" smooth="yes"/>
      <point x="120" y="17"/>
      <point x="150" y="-13"/>
      <point x="186" y="-13" type="curve" smooth="yes"/>
      <point x="222" y="-13"/>
      <point x="252" y="17"/>
      <point x="252" y="53" type="curve" smooth="yes"/>
      <point x="252" y="89"/>
      <point x="222" y="119"/>
    </contour>
  </outline>
</glyph>
<glyph name="C" format="2">
  <advance width="624"/>
  <unicode hex="0043"/>
  <note>
C
</note>
  <guideline x="654" y="63" angle="0"/>
  <anchor x="360" y="0" name="bottom"/>
  <anchor x="357" y="728" name="top"/>
  <outline>
    <contour>
      <point x="378" y="-12" type="curve" smooth="yes"/>
      <point x="448" y="-12"/>
      <point x="548" y="14"/>
      <point x="607" y="56" type="curve"/>
      <point x="576" y="113" type="line"/>
      <point x="506" y="78"/>
      <point x="440" y="63"/>
      <point x="384" y="63" type="curve" smooth="yes"/>
      <point x="239" y="63"/>
      <point x="148" y="175"/>
      <point x="148" y="355" type="curve" smooth="yes"/>
      <point x="148" y="510"/>
      <point x="231" y="668"/>
      <point x="385" y="668" type="curve" smooth="yes"/>
      <point x="441" y="668"/>
      <point x="514" y="644"/>
      <point x="553" y="601" type="curve"/>
      <point x="605" y="659" type="line"/>
      <point x="556" y="714"/>
      <point x="457" y="738"/>
      <point x="387" y="738" type="curve" smooth="yes"/>
      <point x="163" y="738"/>
      <point x="46" y="550"/>
      <point x="46" y="350" type="curve" smooth="yes"/>
      <point x="46" y="165"/>
      <point x="149" y="-12"/>
    </contour>
  </outline>
</glyph>
<glyph name="E" format="2">
  <advance width="549"/>
  <unicode hex="0045"/>
  <note>
E
</note>
  <anchor x="310" y="0" name="bottom"/>
  <anchor x="441" y="0" name="ogonek"/>
  <anchor x="301" y="728" name="top"/>
  <outline>
    <contour>
      <point x="72" y="728" type="line"/>
      <point x="86" y="662" type="line"/>
      <point x="86" y="0" type="line"/>
      <point x="509" y="0" type="line"/>
      <point x="509" y="69" type="line"/>
      <point x="179" y="69" type="line"/>
      <point x="179" y="340" type="line"/>
      <point x="435" y="340" type="line"/>
      <point x="435" y="408" type="line"/>
      <point x="179" y="408" type="line"/>
      <point x="179" y="659" type="line"/>
      <point x="509" y="659" type="line"/>
      <point x="509" y="728" type="line"/>
    </contour>
  </outline>
</glyph>
<glyph name="F" format="2">
  <advance width="510"/>
  <unicode hex="0046"/>
  <note>
F
</note>
  <outline>
    <contour>
      <point x="72" y="728" type="line"/>
      <point x="86" y="662" type="line"/>
      <point x="86" y="0" type="line"/>
      <point x="179" y="0" type="line"/>
      <point x="179" y="340" type="line"/>
      <point x="414" y="340" type="line"/>
      <point x="414" y="408" type="line"/>
      <point x="179" y="408" type="line"/>
      <point x="179" y="659" type="line"/>
      <point x="475" y="659" type="line"/>
      <point x="475" y="728" type="line"/>
    </contour>
  </outline>
</glyph>
<glyph name="H" format="2">
  <advance width="714"/>
  <unicode hex="0048"/>
  <note>
H
</note>
  <anchor x="355" y="0" name="bottom"/>
  <anchor x="361" y="558" name="center"/>
  <anchor x="357" y="728" name="top"/>
  <outline>
    <contour>
      <point x="534" y="344" type="line"/>
      <point x="534" y="0" type="line"/>
      <point x="627" y="0" type="line"/>
      <point x="627" y="728" type="line"/>
      <point x="534" y="728" type="line"/>
      <point x="534" y="412" type="line"/>
      <point x="180" y="412" type="line"/>
      <point x="180" y="728" type="line"/>
      <point x="73" y="728" type="line"/>
      <point x="74" y="722"/>
      <point x="87" y="664"/>
      <point x="87" y="662" type="curve" smooth="yes"/>
      <point x="87" y="0" type="line"/>
      <point x="180" y="0" type="line"/>
      <point x="180" y="344" type="line"/>
    </contour>
  </outline>
</glyph>
<glyph name="J" format="2">
  <advance width="268"/>
  <unicode hex="004A"/>
  <note>
J
</note>
  <anchor x="131" y="728" name="top"/>
  <outline>
    <contour>
      <point x="73" y="728" type="line"/>
      <point x="88" y="662" type="line"/>
      <point x="88" y="55" type="line" smooth="yes"/>
      <point x="88" y="-29"/>
      <point x="81" y="-135"/>
      <point x="-24" y="-152" type="curve"/>
      <point x="-11" y="-211" type="line"/>
      <point x="151" y="-196"/>
      <point x="181" y="-78"/>
      <point x="181" y="61" type="curve" smooth="yes"/>
      <point x="181" y="728" type="line"/>
    </contour>
  </outline>
</glyph>
<glyph name="M" format="2">
  <advance width="838"/>
  <unicode hex="004D"/>
  <note>
M
</note>
  <outline>
    <contour>
      <point x="209" y="728" type="line"/>
      <point x="74" y="728" type="line"/>
      <point x="89" y="662" type="line"/>
      <point x="89" y="0" type="line"/>
      <point x="165" y="0" type="line"/>
      <point x="165" y="532" type="line" smooth="yes"/>
      <point x="165" y="554"/>
      <point x="164" y="574"/>
      <point x="162" y="600" type="curve"/>
      <point x="169" y="581"/>
      <point x="179" y="558"/>
      <point x="186" y="538" type="curve" smooth="yes"/>
      <point x="384" y="-1" type="line"/>
      <point x="440" y="-1" type="line"/>
      <point x="636" y="533" type="line" smooth="yes"/>
      <point x="644" y="555"/>
      <point x="654" y="579"/>
      <point x="662" y="600" type="curve"/>
      <point x="660" y="572"/>
      <point x="659" y="551"/>
      <point x="659" y="527" type="curve" smooth="yes"/>
      <point x="659" y="0" type="line"/>
      <point x="751" y="0" type="line"/>
      <point x="751" y="728" type="line"/>
      <point x="630" y="728" type="line"/>
      <point x="454" y="252" type="line" smooth="yes"/>
      <point x="442" y="220"/>
      <point x="432" y="191"/>
      <point x="421" y="151" type="curve"/>
      <point x="409" y="192"/>
      <point x="398" y="222"/>
      <point x="386" y="255" type="curve" smooth="yes"/>
    </contour>
  </outline>
</glyph>
<glyph name="N" format="2">
  <advance width="714"/>
  <unicode hex="004E"/>
  <note>
N
</note>
  <anchor x="362" y="0" name="bottom"/>
  <anchor x="355" y="728" name="top"/>
  <outline>
    <contour>
      <point x="197" y="728" type="line"/>
      <point x="73" y="728" type="line"/>
      <point x="87" y="662" type="line"/>
      <point x="87" y="0" type="line"/>
      <point x="163" y="0" type="line"/>
      <point x="163" y="553" type="line" smooth="yes"/>
      <point x="163" y="574"/>
      <point x="162" y="597"/>
      <point x="160" y="618" type="curve"/>
      <point x="173" y="601"/>
      <point x="186" y="580"/>
      <point x="197" y="563" type="curve" smooth="yes"/>
      <point x="568" y="-5" type="line"/>
      <point x="627" y="-5" type="line"/>
      <point x="627" y="728" type="line"/>
      <point x="551" y="728" type="line"/>
      <point x="551" y="248" type="line" smooth="yes"/>
      <point x="551" y="226"/>
      <point x="553" y="202"/>
      <point x="554" y="180" type="curve"/>
      <point x="541" y="199"/>
      <point x="527" y="220"/>
      <point x="515" y="239" type="curve" smooth="yes"/>
    </contour>
  </outline>
</glyph>
<glyph name="a" format="2">
  <advance width="494"/>
  <unicode hex="0061"/>
  <note>
a
</note>
  <anchor x="232" y="0" name="bottom"/>
  <anchor x="421" y="0" name="ogonek"/>
  <anchor x="242" y="497" name="top"/>
  <outline>
    <contour>
      <point x="253" y="509" type="curve" smooth="yes"/>
      <point x="183" y="509"/>
      <point x="117" y="488"/>
      <point x="62" y="444" type="curve"/>
      <point x="103" y="385" type="line"/>
      <point x="150" y="423"/>
      <point x="195" y="444"/>
      <point x="246" y="444" type="curve" smooth="yes"/>
      <point x="311" y="444"/>
      <point x="329" y="400"/>
      <point x="329" y="344" type="curve" smooth="yes"/>
      <point x="329" y="291" type="line"/>
      <point x="213" y="290"/>
      <point x="44" y="271"/>
      <point x="44" y="120" type="curve" smooth="yes"/>
      <point x="44" y="38"/>
      <point x="102" y="-11"/>
      <point x="181" y="-11" type="curve" smooth="yes"/>
      <point x="238" y="-11"/>
      <point x="292" y="18"/>
      <point x="331" y="59" type="curve"/>
      <point x="338" y="7"/>
      <point x="369" y="-9"/>
      <point x="404" y="-9" type="curve" smooth="yes"/>
      <point x="439" y="-9"/>
      <point x="474" y="3"/>
      <point x="495" y="15" type="curve"/>
      <point x="477" y="69" type="line"/>
      <point x="465" y="64"/>
      <point x="451" y="60"/>
      <point x="439" y="60" type="curve" smooth="yes"/>
      <point x="424" y="60"/>
      <point x="412" y="68"/>
      <point x="412" y="96" type="curve" smooth="yes"/>
      <point x="412" y="345" type="line" smooth="yes"/>
      <point x="412" y="449"/>
      <point x="358" y="509"/>
    </contour>
    <contour>
      <point x="329" y="226" type="curve"/>
      <point x="329" y="194" type="line" smooth="yes"/>
      <point x="329" y="128"/>
      <point x="279" y="59"/>
      <point x="208" y="59" type="curve" smooth="yes"/>
      <point x="162" y="59"/>
      <point x="129" y="79"/>
      <point x="129" y="123" type="curve" smooth="yes"/>
      <point x="129" y="222"/>
      <point x="257" y="226"/>
    </contour>
  </outline>
</glyph>
<glyph name="b" format="2">
  <advance width="558"/>
  <unicode hex="0062"/>
  <note>
b
</note>
  <outline>
    <contour>
      <point x="305" y="507" type="curve" smooth="yes"/>
      <point x="248" y="507"/>
      <point x="205" y="489"/>
      <point x="163" y="451" type="curve"/>
      <point x="164" y="463"/>
      <point x="165" y="474"/>
      <point x="165" y="486" type="curve" smooth="yes"/>
      <point x="165" y="762" type="line"/>
      <point x="68" y="762" type="line"/>
      <point x="82" y="704" type="line"/>
      <point x="82" y="68" type="line" smooth="yes"/>
      <point x="82" y="45"/>
      <point x="80" y="22"/>
      <point x="79" y="-1" type="curve"/>
      <point x="129" y="-1" type="line"/>
      <point x="147" y="51" type="line"/>
      <point x="183" y="8"/>
      <point x="237" y="-13"/>
      <point x="293" y="-13" type="curve" smooth="yes"/>
      <point x="442" y="-13"/>
      <point x="512" y="116"/>
      <point x="512" y="251" type="curve" smooth="yes"/>
      <point x="512" y="375"/>
      <point x="444" y="507"/>
    </contour>
    <contour>
      <point x="284" y="436" type="curve" smooth="yes"/>
      <point x="386" y="436"/>
      <point x="423" y="335"/>
      <point x="423" y="248" type="curve" smooth="yes"/>
      <point x="423" y="168"/>
      <point x="390" y="49"/>
      <point x="290" y="49" type="curve" smooth="yes"/>
      <point x="198" y="49"/>
      <point x="165" y="115"/>
      <point x="165" y="199" type="curve" smooth="yes"/>
      <point x="165" y="381" type="line"/>
      <point x="195" y="413"/>
      <point x="240" y="436"/>
    </contour>
  </outline>
</glyph>
<glyph name="c" format="2">
  <advance width="450"/>
  <unicode hex="0063"/>
  <note>
c
</note>
  <anchor x="257" y="0" name="bottom"/>
  <anchor x="260" y="497" name="top"/>
  <outline>
    <contour>
      <point x="274" y="509" type="curve" smooth="yes"/>
      <point x="150" y="509"/>
      <point x="44" y="409"/>
      <point x="44" y="253" type="curve" smooth="yes"/>
      <point x="44" y="90"/>
      <point x="136" y="-13"/>
      <point x="264" y="-13" type="curve" smooth="yes"/>
      <point x="325" y="-13"/>
      <point x="370" y="3"/>
      <point x="424" y="37" type="curve"/>
      <point x="397" y="90" type="line"/>
      <point x="357" y="67"/>
      <point x="321" y="55"/>
      <point x="283" y="55" type="curve" smooth="yes"/>
      <point x="196" y="55"/>
      <point x="133" y="123"/>
      <point x="133" y="249" type="curve" smooth="yes"/>
      <point x="133" y="367"/>
      <point x="194" y="444"/>
      <point x="274" y="444" type="curve" smooth="yes"/>
      <point x="307" y="444"/>
      <point x="344" y="430"/>
      <point x="381" y="400" type="curve"/>
      <point x="426" y="458" type="line"/>
      <point x="376" y="493"/>
      <point x="324" y="509"/>
    </contour>
  </outline>
</glyph>
<glyph name="d" format="2">
  <advance width="558"/>
  <unicode hex="0064"/>
  <note>
d
</note>
  <anchor x="380" y="627" name="center"/>
  <anchor x="346" y="525" name="topright"/>
  <outline>
    <contour>
      <point x="267" y="508" type="curve" smooth="yes"/>
      <point x="117" y="508"/>
      <point x="45" y="380"/>
      <point x="45" y="244" type="curve" smooth="yes"/>
      <point x="45" y="119"/>
      <point x="111" y="-13"/>
      <point x="251" y="-13" type="curve" smooth="yes"/>
      <point x="308" y="-13"/>
      <point x="363" y="14"/>
      <point x="398" y="59" type="curve"/>
      <point x="401" y="36"/>
      <point x="407" y="13"/>
      <point x="417" y="-9" type="curve"/>
      <point x="505" y="2" type="line"/>
      <point x="483" y="39"/>
      <point x="474" y="101"/>
      <point x="474" y="143" type="curve" smooth="yes"/>
      <point x="474" y="762" type="line"/>
      <point x="378" y="762" type="line"/>
      <point x="392" y="703" type="line"/>
      <point x="392" y="517" type="line" smooth="yes"/>
      <point x="392" y="499"/>
      <point x="393" y="481"/>
      <point x="394" y="463" type="curve"/>
      <point x="360" y="494"/>
      <point x="312" y="508"/>
    </contour>
    <contour>
      <point x="269" y="440" type="curve" smooth="yes"/>
      <point x="356" y="440"/>
      <point x="392" y="373"/>
      <point x="392" y="294" type="curve" smooth="yes"/>
      <point x="392" y="126" type="line"/>
      <point x="363" y="93"/>
      <point x="322" y="60"/>
      <point x="276" y="60" type="curve" smooth="yes"/>
      <point x="170" y="60"/>
      <point x="133" y="159"/>
      <point x="133" y="250" type="curve" smooth="yes"/>
      <point x="133" y="338"/>
      <point x="164" y="440"/>
    </contour>
  </outline>
</glyph>
<glyph name="f" format="2">
  <advance width="288"/>
  <unicode hex="0066"/>
  <note>
f
</note>
  <outline>
    <contour>
      <point x="303" y="770" type="curve" smooth="yes"/>
      <point x="238" y="770"/>
      <point x="188" y="743"/>
      <point x="155" y="700" type="curve" smooth="yes"/>
      <point x="114" y="648"/>
      <point x="116" y="619"/>
      <point x="97" y="527" type="curve" smooth="yes"/>
      <point x="89" y="488"/>
      <point x="52" y="490"/>
      <point x="20" y="487" type="curve"/>
      <point x="20" y="435" type="line"/>
      <point x="95" y="435" type="line"/>
      <point x="95" y="0" type="line"/>
      <point x="177" y="0" type="line"/>
      <point x="177" y="435" type="line"/>
      <point x="302" y="435" type="line"/>
      <point x="320" y="497" type="line"/>
      <point x="177" y="497" type="line"/>
      <point x="177" y="585"/>
      <point x="188" y="708"/>
      <point x="305" y="708" type="curve" smooth="yes"/>
      <point x="329" y="708"/>
      <point x="359" y="699"/>
      <point x="377" y="683" type="curve"/>
      <point x="400" y="745" type="line"/>
      <point x="368" y="763"/>
      <point x="340" y="770"/>
    </contour>
  </outline>
</glyph>
<glyph name="k" format="2">
  <advance width="464"/>
  <unicode hex="006B"/>
  <note>
k
</note>
  <anchor x="250" y="0" name="bottom"/>
  <outline>
    <contour>
      <point x="164" y="762" type="line"/>
      <point x="68" y="762" type="line"/>
      <point x="81" y="703" type="line"/>
      <point x="81" y="0" type="line"/>
      <point x="164" y="0" type="line"/>
      <point x="164" y="270" type="line"/>
      <point x="367" y="0" type="line"/>
      <point x="466" y="0" type="line"/>
      <point x="248" y="288" type="line"/>
      <point x="439" y="497" type="line"/>
      <point x="350" y="497" type="line"/>
      <point x="164" y="292" type="line"/>
    </contour>
  </outline>
</glyph>
<glyph name="m" format="2">
  <advance width="829"/>
  <unicode hex="006D"/>
  <note>
m
</note>
  <outline>
    <contour>
      <point x="139" y="504" type="curve"/>
      <point x="48" y="494" type="line"/>
      <point x="70" y="458"/>
      <point x="80" y="402"/>
      <point x="80" y="361" type="curve" smooth="yes"/>
      <point x="80" y="0" type="line"/>
      <point x="163" y="0" type="line"/>
      <point x="163" y="369" type="line"/>
      <point x="194" y="397"/>
      <point x="245" y="435"/>
      <point x="289" y="435" type="curve" smooth="yes"/>
      <point x="367" y="435"/>
      <point x="372" y="366"/>
      <point x="372" y="305" type="curve" smooth="yes"/>
      <point x="372" y="0" type="line"/>
      <point x="455" y="0" type="line"/>
      <point x="455" y="367" type="line"/>
      <point x="486" y="398"/>
      <point x="534" y="435"/>
      <point x="581" y="435" type="curve" smooth="yes"/>
      <point x="658" y="435"/>
      <point x="664" y="365"/>
      <point x="664" y="305" type="curve" smooth="yes"/>
      <point x="664" y="0" type="line"/>
      <point x="747" y="0" type="line"/>
      <point x="747" y="332" type="line" smooth="yes"/>
      <point x="747" y="435"/>
      <point x="705" y="509"/>
      <point x="595" y="509" type="curve" smooth="yes"/>
      <point x="537" y="509"/>
      <point x="480" y="466"/>
      <point x="440" y="426" type="curve"/>
      <point x="412" y="484"/>
      <point x="367" y="509"/>
      <point x="303" y="509" type="curve" smooth="yes"/>
      <point x="250" y="509"/>
      <point x="194" y="470"/>
      <point x="158" y="435" type="curve"/>
      <point x="155" y="458"/>
      <point x="148" y="483"/>
    </contour>
  </outline>
</glyph>
<glyph name="o" format="2">
  <advance width="537"/>
  <unicode hex="006F"/>
  <note>
o
</note>
  <anchor x="267" y="0" name="bottom"/>
  <anchor x="265" y="252" name="center"/>
  <anchor x="316" y="0" name="ogonek"/>
  <anchor x="265" y="497" name="top"/>
  <anchor x="293" y="497" name="topright"/>
  <outline>
    <contour>
      <point x="265" y="-13" type="curve" smooth="yes"/>
      <point x="413" y="-13"/>
      <point x="493" y="115"/>
      <point x="493" y="251" type="curve" smooth="yes"/>
      <point x="493" y="387"/>
      <point x="419" y="509"/>
      <point x="271" y="509" type="curve" smooth="yes"/>
      <point x="126" y="509"/>
      <point x="44" y="379"/>
      <point x="44" y="245" type="curve" smooth="yes"/>
      <point x="44" y="110"/>
      <point x="118" y="-13"/>
    </contour>
    <contour>
      <point x="266" y="50" type="curve" smooth="yes"/>
      <point x="166" y="50"/>
      <point x="132" y="166"/>
      <point x="132" y="248" type="curve" smooth="yes"/>
      <point x="132" y="333"/>
      <point x="167" y="446"/>
      <point x="270" y="446" type="curve" smooth="yes"/>
      <point x="375" y="446"/>
      <point x="405" y="335"/>
      <point x="405" y="248" type="curve" smooth="yes"/>
      <point x="405" y="163"/>
      <point x="370" y="50"/>
    </contour>
  </outline>
</glyph>
<glyph name="q" format="2">
  <advance width="556"/>
  <unicode hex="0071"/>
  <note>
q
</note>
  <outline>
    <contour>
      <point x="262" y="509" type="curve" smooth="yes"/>
      <point x="113" y="509"/>
      <point x="44" y="380"/>
      <point x="44" y="245" type="curve" smooth="yes"/>
      <point x="44" y="122"/>
      <point x="112" y="-12"/>
      <point x="251" y="-12" type="curve" smooth="yes"/>
      <point x="309" y="-12"/>
      <point x="352" y="6"/>
      <point x="394" y="45" type="curve"/>
      <point x="392" y="21"/>
      <point x="391" y="-4"/>
      <point x="391" y="-28" type="curve" smooth="yes"/>
      <point x="391" y="-216" type="line"/>
      <point x="487" y="-216" type="line"/>
      <point x="486" y="-211"/>
      <point x="474" y="-159"/>
      <point x="474" y="-157" type="curve" smooth="yes"/>
      <point x="474" y="428" type="line" smooth="yes"/>
      <point x="474" y="451"/>
      <point x="476" y="474"/>
      <point x="477" y="497" type="curve"/>
      <point x="427" y="497" type="line"/>
      <point x="409" y="444" type="line"/>
      <point x="373" y="488"/>
      <point x="318" y="509"/>
    </contour>
    <contour>
      <point x="266" y="446" type="curve" smooth="yes"/>
      <point x="358" y="446"/>
      <point x="391" y="380"/>
      <point x="391" y="296" type="curve" smooth="yes"/>
      <point x="391" y="115" type="line"/>
      <point x="363" y="82"/>
      <point x="315" y="60"/>
      <point x="272" y="60" type="curve" smooth="yes"/>
      <point x="170" y="60"/>
      <point x="133" y="161"/>
      <point x="133" y="248" type="curve" smooth="yes"/>
      <point x="133" y="328"/>
      <point x="166" y="446"/>
    </contour>
  </outline>
</glyph>
<glyph name="x" format="2">
  <advance width="446"/>
  <unicode hex="0078"/>
  <note>
x
</note>
  <outline>
    <contour>
      <point x="116" y="497" type="line"/>
      <point x="21" y="497" type="line"/>
      <point x="341" y="-1" type="line"/>
      <point x="436" y="-1" type="line"/>
    </contour>
    <contour>
      <point x="338" y="497" type="line"/>
      <point x="10" y="-1" type="line"/>
      <point x="99" y="-1" type="line"/>
      <point x="426" y="497" type="line"/>
    </contour>
  </outline>
</glyph>
<glyph name="y" format="2">
  <advance width="456"/>
  <unicode hex="0079"/>
  <note>
y
</note>
  <anchor x="340" y="0" name="bottom"/>
  <anchor x="232" y="497" name="top"/>
  <outline>
    <contour>
      <point x="102" y="497" type="curve"/>
      <point x="12" y="497" type="line"/>
      <point x="194" y="4" type="line"/>
      <point x="170" y="-62"/>
      <point x="133" y="-150"/>
      <point x="49" y="-150" type="curve" smooth="yes"/>
      <point x="45" y="-150"/>
      <point x="42" y="-150"/>
      <point x="38" y="-150" type="curve"/>
      <point x="38" y="-217" type="line"/>
      <point x="76" y="-217" type="line" smooth="yes"/>
      <point x="181" y="-217"/>
      <point x="238" y="-86"/>
      <point x="268" y="-2" type="curve" smooth="yes"/>
      <point x="444" y="497" type="line"/>
      <point x="366" y="497" type="line"/>
      <point x="337" y="414"/>
      <point x="308" y="332"/>
      <point x="279" y="246" type="curve" smooth="yes"/>
      <point x="264" y="201"/>
      <point x="249" y="155"/>
      <point x="234" y="109" type="curve"/>
      <point x="219" y="154"/>
      <point x="204" y="201"/>
      <point x="189" y="246" type="curve" smooth="yes"/>
      <point x="160" y="332"/>
      <point x="131" y="414"/>
    </contour>
  </outline>
</glyph>
<glyph name="z" format="2">
  <advance width="445"/>
  <unicode hex="007A"/>
  <note>
z
</note>
  <anchor x="225" y="497" name="top"/>
  <outline>
    <contour>
      <point x="55" y="497" type="line"/>
      <point x="55" y="433" type="line"/>
      <point x="289" y="433" type="line"/>
      <point x="32" y="47" type="line"/>
      <point x="32" y="0" type="line"/>
      <point x="402" y="0" type="line"/>
      <point x="413" y="63" type="line"/>
      <point x="143" y="63" type="line"/>
      <point x="401" y="449" type="line"/>
      <point x="401" y="497" type="line"/>
    </contour>
  </outline>
</glyph>
<glyph name="braceright" format="2">
  <advance width="349"/>
  <unicode hex="007D"/>
  <note>
braceright
</note>
  <outline>
    <contour>
      <point x="83" y="736" type="curve" smooth="yes"/>
      <point x="58" y="736" type="line"/>
      <point x="58" y="689" type="line"/>
      <point x="123" y="689"/>
      <point x="147" y="676"/>
      <point x="147" y="609" type="curve" smooth="yes"/>
      <point x="147" y="431" type="line" smooth="yes"/>
      <point x="147" y="377"/>
      <point x="156" y="321"/>
      <point x="213" y="301" type="curve"/>
      <point x="156" y="281"/>
      <point x="147" y="224"/>
      <point x="147" y="170" type="curve" smooth="yes"/>
      <point x="147" y="0" type="line" smooth="yes"/>
      <point x="147" y="-71"/>
      <point x="132" y="-88"/>
      <point x="58" y="-88" type="curve"/>
      <point x="58" y="-135" type="line"/>
      <point x="80" y="-135" type="line" smooth="yes"/>
      <point x="188" y="-135"/>
      <point x="228" y="-73"/>
      <point x="228" y="28" type="curve" smooth="yes"/>
      <point x="228" y="181" type="line" smooth="yes"/>
      <point x="228" y="225"/>
      <point x="235" y="278"/>
      <point x="292" y="278" type="curve"/>
      <point x="292" y="323" type="line"/>
      <point x="243" y="323"/>
      <point x="228" y="367"/>
      <point x="228" y="409" type="curve" smooth="yes"/>
      <point x="228" y="573" type="line" smooth="yes"/>
      <point x="228" y="674"/>
      <point x="188" y="736"/>
    </contour>
  </outline>
</glyph>
<glyph name="exclamdown" format="2">
  <advance width="329"/>
  <unicode hex="00A1"/>
  <note>
exclamdown
</note>
  <outline>
    <contour>
      <point x="224" y="-232" type="line"/>
      <point x="195" y="279" type="line"/>
      <point x="136" y="279" type="line"/>
      <point x="107" y="-232" type="line"/>
    </contour>
    <contour>
      <point x="99" y="443" type="curve" smooth="yes"/>
      <point x="99" y="407"/>
      <point x="129" y="377"/>
      <point x="165" y="377" type="curve" smooth="yes"/>
      <point x="202" y="377"/>
      <point x="231" y="406"/>
      <point x="231" y="443" type="curve" smooth="yes"/>
      <point x="231" y="479"/>
      <point x="201" y="509"/>
      <point x="165" y="509" type="curve" smooth="yes"/>
      <point x="129" y="509"/>
      <point x="99" y="479"/>
    </contour>
  </outline>
</glyph>
<glyph name="cent" format="2">
  <advance width="490"/>
  <unicode hex="00A2"/>
  <note>
cent
</note>
  <outline>
    <contour>
      <point x="281" y="485" type="curve" smooth="yes"/>
      <point x="168" y="485"/>
      <point x="72" y="394"/>
      <point x="72" y="253" type="curve" smooth="yes"/>
      <point x="72" y="104"/>
      <point x="155" y="11"/>
      <point x="272" y="11" type="curve" smooth="yes"/>
      <point x="327" y="11"/>
      <point x="374" y="25"/>
      <point x="425" y="56" type="curve"/>
      <point x="395" y="108" type="line"/>
      <point x="356" y="88"/>
      <point x="319" y="78"/>
      <point x="287" y="78" type="curve" smooth="yes"/>
      <point x="209" y="78"/>
      <point x="158" y="137"/>
      <point x="158" y="249" type="curve" smooth="yes"/>
      <point x="158" y="356"/>
      <point x="208" y="421"/>
      <point x="281" y="421" type="curve" smooth="yes"/>
      <point x="311" y="421"/>
      <point x="344" y="408"/>
      <point x="378" y="381" type="curve"/>
      <point x="419" y="439" type="line"/>
      <point x="374" y="471"/>
      <point x="326" y="485"/>
    </contour>
    <contour>
      <point x="273" y="33" type="line"/>
      <point x="227" y="33" type="line"/>
      <point x="186" y="-118" type="line"/>
      <point x="258" y="-118" type="line"/>
    </contour>
    <contour>
      <point x="262" y="468" type="line"/>
      <point x="310" y="468" type="line"/>
      <point x="350" y="612" type="line"/>
      <point x="276" y="612" type="line"/>
    </contour>
  </outline>
</glyph>
<glyph name="yen" format="2">
  <advance width="604"/>
  <unicode hex="00A5"/>
  <note>
yen
</note>
  <outline>
    <contour>
      <point x="150" y="697" type="line"/>
      <point x="42" y="697" type="line"/>
      <point x="259" y="329" type="line"/>
      <point x="259" y="0" type="line"/>
      <point x="354" y="0" type="line"/>
      <point x="354" y="329" type="line"/>
      <point x="563" y="697" type="line"/>
      <point x="476" y="697" type="line"/>
      <point x="319" y="414" type="line"/>
    </contour>
    <contour>
      <point x="77" y="389" type="line"/>
      <point x="67" y="327" type="line"/>
      <point x="531" y="327" type="line"/>
      <point x="541" y="389" type="line"/>
    </contour>
    <contour>
      <point x="77" y="253" type="line"/>
      <point x="67" y="191" type="line"/>
      <point x="531" y="191" type="line"/>
      <point x="541" y="253" type="line"/>
    </contour>
  </outline>
</glyph>
<glyph name="brokenbar" format="2">
  <advance width="238"/>
  <unicode hex="00A6"/>
  <note>
brokenbar
</note>
  <outline>
    <contour>
      <point x="84" y="742" type="line"/>
      <point x="84" y="393" type="line"/>
      <point x="152" y="393" type="line"/>
      <point x="152" y="742" type="line"/>
    </contour>
    <contour>
      <point x="84" y="233" type="line"/>
      <point x="84" y="-115" type="line"/>
      <point x="152" y="-115" type="line"/>
      <point x="152" y="233" type="line"/>
    </contour>
  </outline>
</glyph>
<glyph name="dieresis" format="2">
  <advance width="276"/>
  <unicode hex="00A8"/>
  <note>
dieresis
</note>
  <anchor x="138" y="497" name="_top"/>
  <outline>
    <contour>
      <point x="113" y="657" type="curve" smooth="yes"/>
      <point x="113" y="689"/>
      <point x="88" y="714"/>
      <point x="56" y="714" type="curve" smooth="yes"/>
      <point x="25" y="714"/>
      <point x="0" y="688"/>
      <point x="0" y="657" type="curve" smooth="yes"/>
      <point x="0" y="626"/>
      <point x="25" y="600"/>
      <point x="56" y="600" type="curve" smooth="yes"/>
      <point x="87" y="600"/>
      <point x="113" y="626"/>
    </contour>
    <contour>
      <point x="276" y="657" type="curve" smooth="yes"/>
      <point x="276" y="689"/>
      <point x="251" y="714"/>
      <point x="219" y="714" type="curve" smooth="yes"/>
      <point x="188" y="714"/>
      <point x="163" y="688"/>
      <point x="163" y="657" type="curve" smooth="yes"/>
      <point x="163" y="626"/>
      <point x="188" y="600"/>
      <point x="219" y="600" type="curve" smooth="yes"/>
      <point x="250" y="600"/>
      <point x="276" y="626"/>
    </contour>
  </outline>
</glyph>
<glyph name="copyright" format="2">
  <advance width="634"/>
  <unicode hex="00A9"/>
  <note>
copyright
</note>
  <outline>
    <contour>
      <point x="589" y="250" type="curve" smooth="yes"/>
      <point x="589" y="399"/>
      <point x="466" y="522"/>
      <point x="317" y="522" type="curve" smooth="yes"/>
      <point x="167" y="522"/>
      <point x="45" y="400"/>
      <point x="45" y="250" type="curve" smooth="yes"/>
      <point x="45" y="100"/>
      <point x="167" y="-22"/>
      <point x="317" y="-22" type="curve" smooth="yes"/>
      <point x="466" y="-22"/>
      <point x="589" y="101"/>
    </contour>
    <contour>
      <point x="550" y="250" type="curve" smooth="yes"/>
      <point x="550" y="122"/>
      <point x="445" y="17"/>
      <point x="317" y="17" type="curve" smooth="yes"/>
      <point x="189" y="17"/>
      <point x="84" y="122"/>
      <point x="84" y="250" type="curve" smooth="yes"/>
      <point x="84" y="378"/>
      <point x="189" y="483"/>
      <point x="317" y="483" type="curve" smooth="yes"/>
      <point x="445" y="483"/>
      <point x="550" y="378"/>
    </contour>
    <contour>
      <point x="433" y="119" type="curve"/>
      <point x="407" y="162" type="line"/>
      <point x="380" y="144"/>
      <point x="361" y="134"/>
      <point x="328" y="134" type="curve" smooth="yes"/>
      <point x="266" y="134"/>
      <point x="239" y="204"/>
      <point x="239" y="256" type="curve" smooth="yes"/>
      <point x="239" y="306"/>
      <point x="266" y="370"/>
      <point x="325" y="370" type="curve" smooth="yes"/>
      <point x="357" y="370"/>
      <point x="374" y="363"/>
      <point x="398" y="343" type="curve"/>
      <point x="428" y="381" type="line"/>
      <point x="400" y="399"/>
      <point x="366" y="414"/>
      <point x="333" y="414" type="curve" smooth="yes"/>
      <point x="237" y="414"/>
      <point x="178" y="345"/>
      <point x="178" y="251" type="curve" smooth="yes"/>
      <point x="178" y="162"/>
      <point x="231" y="88"/>
      <point x="325" y="88" type="curve" smooth="yes"/>
      <point x="371" y="88"/>
      <point x="394" y="97"/>
    </contour>
  </outline>
</glyph>
<glyph name="ordfeminine" format="2">
  <advance width="315"/>
  <unicode hex="00AA"/>
  <note>
ordfeminine
</note>
  <outline>
    <contour>
      <point x="305" y="410" type="curve"/>
      <point x="291" y="448" type="line"/>
      <point x="282" y="445"/>
      <point x="273" y="442"/>
      <point x="266" y="442" type="curve" smooth="yes"/>
      <point x="256" y="442"/>
      <point x="249" y="448"/>
      <point x="249" y="467" type="curve" smooth="yes"/>
      <point x="249" y="620" type="line" smooth="yes"/>
      <point x="249" y="688"/>
      <point x="215" y="730"/>
      <point x="145" y="730" type="curve" smooth="yes"/>
      <point x="97" y="730"/>
      <point x="56" y="715"/>
      <point x="19" y="684" type="curve"/>
      <point x="52" y="634" type="line"/>
      <point x="73" y="656"/>
      <point x="111" y="676"/>
      <point x="141" y="676" type="curve" smooth="yes"/>
      <point x="178" y="676"/>
      <point x="186" y="651"/>
      <point x="186" y="619" type="curve" smooth="yes"/>
      <point x="186" y="592" type="line"/>
      <point x="108" y="591"/>
      <point x="10" y="573"/>
      <point x="10" y="476" type="curve" smooth="yes"/>
      <point x="10" y="422"/>
      <point x="48" y="387"/>
      <point x="101" y="387" type="curve" smooth="yes"/>
      <point x="134" y="387"/>
      <point x="166" y="402"/>
      <point x="190" y="425" type="curve"/>
      <point x="199" y="399"/>
      <point x="218" y="388"/>
      <point x="240" y="388" type="curve" smooth="yes"/>
      <point x="261" y="388"/>
      <point x="284" y="397"/>
    </contour>
    <contour>
      <point x="186" y="537" type="curve"/>
      <point x="186" y="523" type="line" smooth="yes"/>
      <point x="186" y="487"/>
      <point x="158" y="444"/>
      <point x="118" y="444" type="curve" smooth="yes"/>
      <point x="98" y="444"/>
      <point x="76" y="456"/>
      <point x="76" y="478" type="curve" smooth="yes"/>
      <point x="76" y="535"/>
      <point x="144" y="537"/>
    </contour>
    <contour>
      <point x="30" y="329" type="line"/>
      <point x="30" y="279" type="line"/>
      <point x="269" y="279" type="line"/>
      <point x="269" y="329" type="line"/>
    </contour>
  </outline>
</glyph>
<glyph name="guillemetleft" format="2">
  <advance width="466"/>
  <unicode hex="00AB"/>
  <note>
guillemotleft
</note>
  <outline>
    <contour>
      <point x="55" y="336" type="line"/>
      <point x="203" y="173" type="line"/>
      <point x="263" y="182" type="line"/>
      <point x="144" y="336" type="line"/>
      <point x="260" y="488" type="line"/>
      <point x="199" y="499" type="line"/>
    </contour>
    <contour>
      <point x="203" y="336" type="line"/>
      <point x="352" y="173" type="line"/>
      <point x="411" y="182" type="line"/>
      <point x="293" y="336" type="line"/>
      <point x="409" y="488" type="line"/>
      <point x="348" y="499" type="line"/>
    </contour>
  </outline>
</glyph>
<glyph name="paragraph" format="2">
  <advance width="500"/>
  <unicode hex="00B6"/>
  <note>
paragraph
</note>
  <outline>
    <contour>
      <point x="153" y="-110" type="curve"/>
      <point x="143" y="-154" type="line"/>
      <point x="201" y="-173"/>
      <point x="252" y="-148"/>
      <point x="271" y="-99" type="curve"/>
      <point x="339" y="-110"/>
      <point x="399" y="-57"/>
      <point x="399" y="10" type="curve" smooth="yes"/>
      <point x="399" y="664" type="line"/>
      <point x="455" y="664" type="line"/>
      <point x="455" y="718" type="line"/>
      <point x="263" y="718" type="line" smooth="yes"/>
      <point x="137" y="718"/>
      <point x="40" y="656"/>
      <point x="40" y="520" type="curve" smooth="yes"/>
      <point x="40" y="412"/>
      <point x="125" y="332"/>
      <point x="229" y="332" type="curve"/>
      <point x="229" y="-47" type="line" smooth="yes"/>
      <point x="229" y="-89"/>
      <point x="201" y="-122"/>
    </contour>
    <contour>
      <point x="284" y="664" type="line"/>
      <point x="345" y="664" type="line"/>
      <point x="345" y="10" type="line" smooth="yes"/>
      <point x="345" y="-20"/>
      <point x="322" y="-47"/>
      <point x="284" y="-47" type="curve"/>
    </contour>
  </outline>
</glyph>
<glyph name="cedilla" format="2">
  <advance width="280"/>
  <unicode hex="00B8"/>
  <note>
cedilla
</note>
  <anchor x="134" y="0" name="_bottom"/>
  <outline>
    <contour>
      <point x="114" y="9" type="line"/>
      <point x="61" y="-91" type="line"/>
      <point x="80" y="-87"/>
      <point x="96" y="-85"/>
      <point x="109" y="-85" type="curve" smooth="yes"/>
      <point x="148" y="-85"/>
      <point x="164" y="-102"/>
      <point x="164" y="-130" type="curve" smooth="yes"/>
      <point x="164" y="-156"/>
      <point x="144" y="-168"/>
      <point x="119" y="-168" type="curve" smooth="yes"/>
      <point x="99" y="-168"/>
      <point x="76" y="-161"/>
      <point x="56" y="-146" type="curve"/>
      <point x="32" y="-192" type="line"/>
      <point x="62" y="-211"/>
      <point x="98" y="-220"/>
      <point x="132" y="-220" type="curve" smooth="yes"/>
      <point x="193" y="-220"/>
      <point x="247" y="-189"/>
      <point x="247" y="-127" type="curve" smooth="yes"/>
      <point x="247" y="-77"/>
      <point x="205" y="-46"/>
      <point x="132" y="-46" type="curve"/>
      <point x="161" y="9" type="line"/>
    </contour>
  </outline>
</glyph>
<glyph name="onesuperior" format="2">
  <advance width="455"/>
  <unicode hex="00B9"/>
  <note>
uni00B9
</note>
  <outline>
    <contour>
      <point x="91" y="493" type="line"/>
      <point x="91" y="434" type="line"/>
      <point x="395" y="434" type="line"/>
      <point x="395" y="493" type="line"/>
      <point x="295" y="493" type="line"/>
      <point x="295" y="918" type="line"/>
      <point x="245" y="918" type="line"/>
      <point x="76" y="852" type="line"/>
      <point x="94" y="803" type="line"/>
      <point x="215" y="838" type="line"/>
      <point x="215" y="493" type="line"/>
    </contour>
  </outline>
</glyph>
<glyph name="ordmasculine" format="2">
  <advance width="332"/>
  <unicode hex="00BA"/>
  <note>
ordmasculine
</note>
  <outline>
    <contour>
      <point x="170" y="737" type="curve" smooth="yes"/>
      <point x="73" y="737"/>
      <point x="13" y="657"/>
      <point x="13" y="566" type="curve" smooth="yes"/>
      <point x="13" y="474"/>
      <point x="64" y="395"/>
      <point x="162" y="395" type="curve" smooth="yes"/>
      <point x="260" y="395"/>
      <point x="319" y="474"/>
      <point x="319" y="566" type="curve" smooth="yes"/>
      <point x="319" y="658"/>
      <point x="268" y="737"/>
    </contour>
    <contour>
      <point x="166" y="685" type="curve" smooth="yes"/>
      <point x="227" y="685"/>
      <point x="249" y="617"/>
      <point x="249" y="566" type="curve" smooth="yes"/>
      <point x="249" y="515"/>
      <point x="228" y="447"/>
      <point x="166" y="447" type="curve" smooth="yes"/>
      <point x="107" y="447"/>
      <point x="82" y="517"/>
      <point x="82" y="566" type="curve" smooth="yes"/>
      <point x="82" y="618"/>
      <point x="103" y="685"/>
    </contour>
    <contour>
      <point x="47" y="329" type="line"/>
      <point x="47" y="279" type="line"/>
      <point x="286" y="279" type="line"/>
      <point x="286" y="329" type="line"/>
    </contour>
  </outline>
</glyph>
<glyph name="onehalf" format="2">
  <advance width="1129"/>
  <unicode hex="00BD"/>
  <note>
onehalf
</note>
  <outline>
    <contour>
      <point x="718" y="730" type="line"/>
      <point x="345" y="-7" type="line"/>
      <point x="409" y="-7" type="line"/>
      <point x="784" y="730" type="line"/>
    </contour>
    <contour>
      <point x="91" y="303" type="line"/>
      <point x="91" y="244" type="line"/>
      <point x="395" y="244" type="line"/>
      <point x="395" y="303" type="line"/>
      <point x="295" y="303" type="line"/>
      <point x="295" y="728" type="line"/>
      <point x="245" y="728" type="line"/>
      <point x="76" y="662" type="line"/>
      <point x="94" y="613" type="line"/>
      <point x="215" y="648" type="line"/>
      <point x="215" y="303" type="line"/>
    </contour>
    <contour>
      <point x="732" y="38" type="curve"/>
      <point x="732" y="0" type="line"/>
      <point x="1063" y="0" type="line"/>
      <point x="1082" y="68" type="line"/>
      <point x="845" y="68" type="line" smooth="yes"/>
      <point x="845" y="68"/>
      <point x="1068" y="217"/>
      <point x="1068" y="367" type="curve" smooth="yes"/>
      <point x="1068" y="427"/>
      <point x="1031" y="494"/>
      <point x="921" y="494" type="curve" smooth="yes"/>
      <point x="812" y="494"/>
      <point x="747" y="430"/>
      <point x="747" y="430" type="curve"/>
      <point x="779" y="383" type="line"/>
      <point x="779" y="383"/>
      <point x="837" y="436"/>
      <point x="905" y="436" type="curve" smooth="yes"/>
      <point x="955" y="436"/>
      <point x="984" y="404"/>
      <point x="984" y="361" type="curve" smooth="yes"/>
      <point x="984" y="233"/>
      <point x="732" y="38"/>
    </contour>
  </outline>
</glyph>
<glyph name="threequarters" format="2">
  <advance width="1129"/>
  <unicode hex="00BE"/>
  <note>
threequarters
</note>
  <outline>
    <contour>
      <point x="718" y="730" type="line"/>
      <point x="345" y="-7" type="line"/>
      <point x="409" y="-7" type="line"/>
      <point x="784" y="730" type="line"/>
    </contour>
    <contour>
      <point x="63" y="284" type="curve"/>
      <point x="73" y="233" type="line"/>
      <point x="335" y="242"/>
      <point x="394" y="351"/>
      <point x="394" y="424" type="curve" smooth="yes"/>
      <point x="394" y="491"/>
      <point x="340" y="531"/>
      <point x="277" y="538" type="curve"/>
      <point x="321" y="555"/>
      <point x="372" y="590"/>
      <point x="372" y="648" type="curve" smooth="yes"/>
      <point x="372" y="718"/>
      <point x="304" y="738"/>
      <point x="244" y="738" type="curve" smooth="yes"/>
      <point x="185" y="738"/>
      <point x="112" y="712"/>
      <point x="67" y="676" type="curve"/>
      <point x="99" y="630" type="line"/>
      <point x="130" y="655"/>
      <point x="183" y="680"/>
      <point x="225" y="680" type="curve" smooth="yes"/>
      <point x="268" y="680"/>
      <point x="295" y="664"/>
      <point x="295" y="633" type="curve" smooth="yes"/>
      <point x="295" y="571"/>
      <point x="212" y="545"/>
      <point x="157" y="534" type="curve"/>
      <point x="165" y="487" type="line"/>
      <point x="165" y="487"/>
      <point x="181" y="489"/>
      <point x="200" y="489" type="curve" smooth="yes"/>
      <point x="251" y="489"/>
      <point x="314" y="481"/>
      <point x="314" y="416" type="curve" smooth="yes"/>
      <point x="314" y="344"/>
      <point x="226" y="292"/>
    </contour>
    <contour>
      <point x="940" y="110" type="line"/>
      <point x="940" y="0" type="line"/>
      <point x="1020" y="0" type="line"/>
      <point x="1020" y="110" type="line"/>
      <point x="1078" y="110" type="line"/>
      <point x="1095" y="169" type="line"/>
      <point x="1020" y="169" type="line"/>
      <point x="1020" y="483" type="line"/>
      <point x="940" y="483" type="line"/>
      <point x="711" y="150" type="line"/>
      <point x="711" y="110" type="line"/>
    </contour>
    <contour>
      <point x="943" y="387" type="line"/>
      <point x="940" y="169" type="line"/>
      <point x="796" y="169" type="line"/>
    </contour>
  </outline>
</glyph>
<glyph name="questiondown" format="2">
  <advance width="431"/>
  <unicode hex="00BF"/>
  <note>
questiondown
</note>
  <outline>
    <contour>
      <point x="249" y="-227" type="curve" smooth="yes"/>
      <point x="294" y="-227"/>
      <point x="353" y="-212"/>
      <point x="387" y="-191" type="curve"/>
      <point x="360" y="-124" type="line"/>
      <point x="333" y="-143"/>
      <point x="297" y="-155"/>
      <point x="264" y="-155" type="curve" smooth="yes"/>
      <point x="197" y="-155"/>
      <point x="139" y="-123"/>
      <point x="139" y="-52" type="curve" smooth="yes"/>
      <point x="139" y="28"/>
      <point x="211" y="72"/>
      <point x="281" y="84" type="curve"/>
      <point x="281" y="279" type="line"/>
      <point x="216" y="279" type="line"/>
      <point x="216" y="136" type="line"/>
      <point x="120" y="104"/>
      <point x="51" y="43"/>
      <point x="51" y="-58" type="curve" smooth="yes"/>
      <point x="51" y="-171"/>
      <point x="148" y="-227"/>
    </contour>
    <contour>
      <point x="252" y="377" type="curve" smooth="yes"/>
      <point x="289" y="377"/>
      <point x="318" y="406"/>
      <point x="318" y="443" type="curve" smooth="yes"/>
      <point x="318" y="479"/>
      <point x="288" y="509"/>
      <point x="252" y="509" type="curve" smooth="yes"/>
      <point x="216" y="509"/>
      <point x="186" y="479"/>
      <point x="186" y="443" type="curve" smooth="yes"/>
      <point x="186" y="407"/>
      <point x="216" y="377"/>
    </contour>
  </outline>
</glyph>
<glyph name="AE" format="2">
  <advance width="794"/>
  <unicode hex="00C6"/>
  <note>
AE
</note>
  <anchor x="437" y="728" name="top"/>
  <outline>
    <contour>
      <point x="390" y="248" type="line"/>
      <point x="390" y="0" type="line"/>
      <point x="747" y="0" type="line"/>
      <point x="747" y="71" type="line"/>
      <point x="482" y="71" type="line"/>
      <point x="482" y="338" type="line"/>
      <point x="716" y="338" type="line"/>
      <point x="716" y="410" type="line"/>
      <point x="482" y="410" type="line"/>
      <point x="482" y="660" type="line"/>
      <point x="747" y="660" type="line"/>
      <point x="747" y="728" type="line"/>
      <point x="299" y="728" type="line"/>
      <point x="313" y="663" type="line"/>
      <point x="12" y="0" type="line"/>
      <point x="97" y="0" type="line"/>
      <point x="211" y="248" type="line"/>
    </contour>
    <contour>
      <point x="243" y="320" type="line"/>
      <point x="390" y="641" type="line"/>
      <point x="390" y="320" type="line"/>
    </contour>
  </outline>
</glyph>
<glyph name="divide" format="2">
  <advance width="630"/>
  <unicode hex="00F7"/>
  <note>
divide
</note>
  <outline>
    <contour>
      <point x="376" y="413" type="curve" smooth="yes"/>
      <point x="376" y="446"/>
      <point x="349" y="474"/>
      <point x="316" y="474" type="curve" smooth="yes"/>
      <point x="283" y="474"/>
      <point x="255" y="446"/>
      <point x="255" y="413" type="curve" smooth="yes"/>
      <point x="255" y="380"/>
      <point x="283" y="353"/>
      <point x="316" y="353" type="curve" smooth="yes"/>
      <point x="349" y="353"/>
      <point x="376" y="380"/>
    </contour>
    <contour>
      <point x="68" y="281" type="line"/>
      <point x="68" y="211" type="line"/>
      <point x="567" y="211" type="line"/>
      <point x="567" y="281" type="line"/>
    </contour>
    <contour>
      <point x="376" y="80" type="curve" smooth="yes"/>
      <point x="376" y="113"/>
      <point x="349" y="140"/>
      <point x="316" y="140" type="curve" smooth="yes"/>
      <point x="283" y="140"/>
      <point x="255" y="113"/>
      <point x="255" y="80" type="curve" smooth="yes"/>
      <point x="255" y="47"/>
      <point x="283" y="20"/>
      <point x="316" y="20" type="curve" smooth="yes"/>
      <point x="349" y="20"/>
      <point x="376" y="47"/>
    </contour>
  </outline>
</glyph>
<glyph name="thorn" format="2">
  <advance width="556"/>
  <unicode hex="00FE"/>
  <note>
thorn
</note>
  <outline>
    <contour>
      <point x="303" y="508" type="curve" smooth="yes"/>
      <point x="249" y="508"/>
      <point x="198" y="483"/>
      <point x="163" y="443" type="curve"/>
      <point x="163" y="762" type="line"/>
      <point x="67" y="762" type="line"/>
      <point x="80" y="704" type="line"/>
      <point x="81" y="-216" type="line"/>
      <point x="177" y="-216" type="line"/>
      <point x="163" y="-157" type="line"/>
      <point x="163" y="-18" type="line" smooth="yes"/>
      <point x="163" y="-7"/>
      <point x="163" y="13"/>
      <point x="161" y="32" type="curve"/>
      <point x="194" y="1"/>
      <point x="242" y="-13"/>
      <point x="287" y="-13" type="curve" smooth="yes"/>
      <point x="437" y="-13"/>
      <point x="510" y="114"/>
      <point x="510" y="251" type="curve" smooth="yes"/>
      <point x="510" y="376"/>
      <point x="444" y="508"/>
    </contour>
    <contour>
      <point x="278" y="435" type="curve" smooth="yes"/>
      <point x="384" y="435"/>
      <point x="422" y="337"/>
      <point x="422" y="245" type="curve" smooth="yes"/>
      <point x="422" y="157"/>
      <point x="390" y="55"/>
      <point x="285" y="55" type="curve" smooth="yes"/>
      <point x="198" y="55"/>
      <point x="163" y="122"/>
      <point x="163" y="201" type="curve" smooth="yes"/>
      <point x="163" y="369" type="line"/>
      <point x="191" y="402"/>
      <point x="232" y="435"/>
    </contour>
  </outline>
</glyph>
<glyph name="iogonek" format="2">
  <advance width="251"/>
  <unicode hex="012F"/>
  <outline>
    <contour>
      <point x="185" y="664" type="curve" smooth="yes"/>
      <point x="185" y="697"/>
      <point x="157" y="725"/>
      <point x="124" y="725" type="curve" smooth="yes"/>
      <point x="91" y="725"/>
      <point x="64" y="697"/>
      <point x="64" y="664" type="curve" smooth="yes"/>
      <point x="64" y="631"/>
      <point x="91" y="603"/>
      <point x="124" y="603" type="curve" smooth="yes"/>
      <point x="158" y="603"/>
      <point x="185" y="630"/>
    </contour>
    <contour>
      <point x="167" y="497" type="line"/>
      <point x="72" y="497" type="line"/>
      <point x="84" y="438" type="line"/>
      <point x="84" y="0" type="line"/>
      <point x="167" y="0" type="line"/>
    </contour>
    <contour>
      <point x="203" y="-152" type="curve"/>
      <point x="186" y="-115" type="line"/>
      <point x="165" y="-128"/>
      <point x="131" y="-147"/>
      <point x="106" y="-147" type="curve" smooth="yes"/>
      <point x="77" y="-147"/>
      <point x="57" y="-132"/>
      <point x="57" y="-102" type="curve" smooth="yes"/>
      <point x="57" y="-54"/>
      <point x="119" y="-19"/>
      <point x="162" y="4" type="curve"/>
      <point x="160" y="25" type="line"/>
      <point x="96" y="14"/>
      <point x="-26" y="-42"/>
      <point x="-26" y="-118" type="curve" smooth="yes"/>
      <point x="-26" y="-175"/>
      <point x="17" y="-202"/>
      <point x="70" y="-202" type="curve" smooth="yes"/>
      <point x="119" y="-202"/>
      <point x="165" y="-181"/>
    </contour>
  </outline>
</glyph>
<glyph name="lcaron" format="2">
  <advance width="309"/>
  <unicode hex="013E"/>
  <outline>
    <contour>
      <point x="167" y="762" type="line"/>
      <point x="71" y="762" type="line"/>
      <point x="84" y="704" type="line"/>
      <point x="84" y="0" type="line"/>
      <point x="167" y="0" type="line"/>
    </contour>
    <contour>
      <point x="224" y="763" type="line"/>
      <point x="214" y="611" type="line"/>
      <point x="287" y="611" type="line"/>
      <point x="336" y="763" type="line"/>
    </contour>
  </outline>
</glyph>
<glyph name="ldot" format="2">
  <advance width="330"/>
  <unicode hex="0140"/>
  <outline>
    <contour>
      <point x="167" y="762" type="line"/>
      <point x="71" y="762" type="line"/>
      <point x="84" y="704" type="line"/>
      <point x="84" y="0" type="line"/>
      <point x="167" y="0" type="line"/>
    </contour>
    <contour>
      <point x="363" y="310" type="curve" smooth="yes"/>
      <point x="363" y="346"/>
      <point x="333" y="377"/>
      <point x="297" y="377" type="curve" smooth="yes"/>
      <point x="260" y="377"/>
      <point x="231" y="347"/>
      <point x="231" y="310" type="curve" smooth="yes"/>
      <point x="231" y="274"/>
      <point x="261" y="245"/>
      <point x="297" y="245" type="curve" smooth="yes"/>
      <point x="333" y="245"/>
      <point x="363" y="274"/>
    </contour>
  </outline>
</glyph>
<glyph name="Fhook" format="2">
  <advance width="510"/>
  <unicode hex="0191"/>
  <outline>
    <contour>
      <point x="-25" y="-159" type="curve"/>
      <point x="-13" y="-211" type="line"/>
      <point x="149" y="-196"/>
      <point x="179" y="-78"/>
      <point x="179" y="61" type="curve" smooth="yes"/>
      <point x="179" y="340" type="line"/>
      <point x="414" y="340" type="line"/>
      <point x="414" y="408" type="line"/>
      <point x="179" y="408" type="line"/>
      <point x="179" y="659" type="line"/>
      <point x="475" y="659" type="line"/>
      <point x="475" y="728" type="line"/>
      <point x="71" y="728" type="line"/>
      <point x="86" y="662" type="line"/>
      <point x="86" y="55" type="line" smooth="yes"/>
      <point x="86" y="-29"/>
      <point x="80" y="-144"/>
    </contour>
  </outline>
</glyph>
<glyph name="uhorn" format="2">
  <advance width="553"/>
  <unicode hex="01B0"/>
  <anchor x="276" y="0" name="bottom"/>
  <anchor x="280" y="497" name="top"/>
  <outline>
    <contour>
      <point x="232" y="-13" type="curve" smooth="yes"/>
      <point x="289" y="-13"/>
      <point x="346" y="19"/>
      <point x="385" y="59" type="curve"/>
      <point x="391" y="21"/>
      <point x="414" y="-9"/>
      <point x="455" y="-9" type="curve" smooth="yes"/>
      <point x="487" y="-9"/>
      <point x="522" y="10"/>
      <point x="551" y="21" type="curve"/>
      <point x="534" y="73" type="line"/>
      <point x="529" y="71"/>
      <point x="489" y="59"/>
      <point x="487" y="59" type="curve" smooth="yes"/>
      <point x="468" y="59"/>
      <point x="465" y="73"/>
      <point x="465" y="97" type="curve" smooth="yes"/>
      <point x="465" y="497" type="line"/>
      <point x="369" y="497" type="line"/>
      <point x="382" y="438" type="line"/>
      <point x="382" y="188" type="line" smooth="yes"/>
      <point x="382" y="112"/>
      <point x="319" y="61"/>
      <point x="246" y="61" type="curve" smooth="yes"/>
      <point x="170" y="61"/>
      <point x="163" y="132"/>
      <point x="163" y="191" type="curve" smooth="yes"/>
      <point x="163" y="497" type="line"/>
      <point x="67" y="497" type="line"/>
      <point x="80" y="438" type="line"/>
      <point x="80" y="164" type="line" smooth="yes"/>
      <point x="80" y="61"/>
      <point x="122" y="-13"/>
    </contour>
    <contour>
      <point x="381" y="448" type="line"/>
      <point x="522" y="412"/>
      <point x="594" y="518"/>
      <point x="590" y="618" type="curve"/>
      <point x="491" y="618" type="line"/>
      <point x="499" y="549"/>
      <point x="471" y="497"/>
      <point x="420" y="497" type="curve"/>
    </contour>
  </outline>
</glyph>
<glyph name="apostrophemod" format="2">
  <advance width="286"/>
  <unicode hex="02BC"/>
  <anchor x="194" y="497" name="_topright"/>
  <outline>
    <contour>
      <point x="138" y="762" type="curve" smooth="yes"/>
      <point x="110" y="762"/>
      <point x="86" y="740"/>
      <point x="86" y="712" type="curve" smooth="yes"/>
      <point x="86" y="670"/>
      <point x="128" y="663"/>
      <point x="128" y="640" type="curve" smooth="yes"/>
      <point x="128" y="619"/>
      <point x="101" y="596"/>
      <point x="87" y="581" type="curve"/>
      <point x="96" y="572"/>
      <point x="106" y="561"/>
      <point x="116" y="553" type="curve"/>
      <point x="161" y="585"/>
      <point x="201" y="634"/>
      <point x="201" y="691" type="curve" smooth="yes"/>
      <point x="201" y="729"/>
      <point x="178" y="762"/>
    </contour>
  </outline>
</glyph>
<glyph name="dotaccent" format="2">
  <advance width="276"/>
  <unicode hex="02D9"/>
  <note>
dotaccent
</note>
  <anchor x="138" y="497" name="_top"/>
  <outline>
    <contour>
      <point x="194" y="657" type="curve" smooth="yes"/>
      <point x="194" y="689"/>
      <point x="169" y="714"/>
      <point x="137" y="714" type="curve" smooth="yes"/>
      <point x="106" y="714"/>
      <point x="81" y="688"/>
      <point x="81" y="657" type="curve" smooth="yes"/>
      <point x="81" y="626"/>
      <point x="106" y="600"/>
      <point x="137" y="600" type="curve" smooth="yes"/>
      <point x="168" y="600"/>
      <point x="194" y="626"/>
    </contour>
  </outline>
</glyph>
<glyph name="ring" format="2">
  <advance width="282"/>
  <unicode hex="02DA"/>
  <note>
ring
</note>
  <anchor x="141" y="497" name="_top"/>
  <outline>
    <contour>
      <point x="141" y="758" type="curve" smooth="yes"/>
      <point x="87" y="758"/>
      <point x="42" y="712"/>
      <point x="42" y="658" type="curve" smooth="yes"/>
      <point x="42" y="604"/>
      <point x="87" y="559"/>
      <point x="141" y="559" type="curve" smooth="yes"/>
      <point x="195" y="559"/>
      <point x="240" y="604"/>
      <point x="240" y="658" type="curve" smooth="yes"/>
      <point x="240" y="713"/>
      <point x="196" y="758"/>
    </contour>
    <contour>
      <point x="141" y="706" type="curve" smooth="yes"/>
      <point x="167" y="706"/>
      <point x="189" y="684"/>
      <point x="189" y="658" type="curve" smooth="yes"/>
      <point x="189" y="632"/>
      <point x="167" y="610"/>
      <point x="141" y="610" type="curve" smooth="yes"/>
      <point x="114" y="610"/>
      <point x="93" y="631"/>
      <point x="93" y="658" type="curve" smooth="yes"/>
      <point x="93" y="685"/>
      <point x="114" y="706"/>
    </contour>
  </outline>
</glyph>
<glyph name="hungarumlaut" format="2">
  <advance width="380"/>
  <unicode hex="02DD"/>
  <note>
hungarumlaut
</note>
  <anchor x="123" y="497" name="_top"/>
  <outline>
    <contour>
      <point x="101" y="733" type="line"/>
      <point x="20" y="581" type="line"/>
      <point x="82" y="581" type="line"/>
      <point x="219" y="733" type="line"/>
    </contour>
    <contour>
      <point x="243" y="733" type="line"/>
      <point x="162" y="581" type="line"/>
      <point x="223" y="581" type="line"/>
      <point x="360" y="733" type="line"/>
    </contour>
  </outline>
</glyph>
<glyph name="slashshortcomb" format="2">
  <unicode hex="0337"/>
  <anchor x="122" y="353" name="_center"/>
  <outline>
    <contour>
      <point x="11" y="265" type="line"/>
      <point x="236" y="370" type="line"/>
      <point x="236" y="439" type="line"/>
      <point x="11" y="334" type="line"/>
    </contour>
  </outline>
</glyph>
<glyph name="slashlongcomb" format="2">
  <unicode hex="0338"/>
  <anchor x="260" y="244" name="_center"/>
  <outline>
    <contour>
      <point x="101" y="-69" type="line"/>
      <point x="470" y="526" type="line"/>
      <point x="420" y="553" type="line"/>
      <point x="54" y="-38" type="line"/>
    </contour>
  </outline>
</glyph>
<glyph name="emdash" format="2">
  <advance width="835"/>
  <unicode hex="2014"/>
  <note>
emdash
</note>
  <outline>
    <contour>
      <point x="0" y="291" type="line"/>
      <point x="0" y="230" type="line"/>
      <point x="835" y="230" type="line"/>
      <point x="835" y="291" type="line"/>
    </contour>
  </outline>
</glyph>
<glyph name="quotedblleft" format="2">
  <advance width="487"/>
  <unicode hex="201C"/>
  <note>
quotedblleft
</note>
  <outline>
    <contour>
      <point x="208" y="542" type="curve" smooth="yes"/>
      <point x="208" y="592"/>
      <point x="158" y="601"/>
      <point x="158" y="628" type="curve" smooth="yes"/>
      <point x="158" y="654"/>
      <point x="190" y="681"/>
      <point x="207" y="699" type="curve"/>
      <point x="173" y="733" type="line"/>
      <point x="119" y="694"/>
      <point x="71" y="636"/>
      <point x="71" y="567" type="curve" smooth="yes"/>
      <point x="71" y="522"/>
      <point x="99" y="482"/>
      <point x="147" y="482" type="curve" smooth="yes"/>
      <point x="181" y="482"/>
      <point x="208" y="508"/>
    </contour>
    <contour>
      <point x="403" y="542" type="curve" smooth="yes"/>
      <point x="403" y="592"/>
      <point x="353" y="601"/>
      <point x="353" y="628" type="curve" smooth="yes"/>
      <point x="353" y="654"/>
      <point x="385" y="681"/>
      <point x="402" y="699" type="curve"/>
      <point x="368" y="733" type="line"/>
      <point x="314" y="694"/>
      <point x="266" y="636"/>
      <point x="266" y="567" type="curve" smooth="yes"/>
      <point x="266" y="522"/>
      <point x="294" y="482"/>
      <point x="342" y="482" type="curve" smooth="yes"/>
      <point x="376" y="482"/>
      <point x="403" y="508"/>
    </contour>
  </outline>
</glyph>
<glyph name="quotedblbase" format="2">
  <advance width="477"/>
  <unicode hex="201E"/>
  <note>
quotedblbase
</note>
  <outline>
    <contour>
      <point x="76" y="-93" type="curve"/>
      <point x="110" y="-127" type="line"/>
      <point x="164" y="-88"/>
      <point x="212" y="-30"/>
      <point x="212" y="39" type="curve" smooth="yes"/>
      <point x="212" y="84"/>
      <point x="185" y="124"/>
      <point x="137" y="124" type="curve" smooth="yes"/>
      <point x="103" y="124"/>
      <point x="75" y="98"/>
      <point x="75" y="64" type="curve" smooth="yes"/>
      <point x="75" y="14"/>
      <point x="125" y="5"/>
      <point x="125" y="-22" type="curve" smooth="yes"/>
      <point x="125" y="-48"/>
      <point x="93" y="-75"/>
    </contour>
    <contour>
      <point x="265" y="-93" type="curve"/>
      <point x="299" y="-127" type="line"/>
      <point x="353" y="-88"/>
      <point x="401" y="-30"/>
      <point x="401" y="39" type="curve" smooth="yes"/>
      <point x="401" y="84"/>
      <point x="374" y="124"/>
      <point x="326" y="124" type="curve" smooth="yes"/>
      <point x="292" y="124"/>
      <point x="264" y="98"/>
      <point x="264" y="64" type="curve" smooth="yes"/>
      <point x="264" y="14"/>
      <point x="314" y="5"/>
      <point x="314" y="-22" type="curve" smooth="yes"/>
      <point x="314" y="-48"/>
      <point x="282" y="-75"/>
    </contour>
  </outline>
</glyph>
<glyph name="dagger" format="2">
  <advance width="523"/>
  <unicode hex="2020"/>
  <note>
dagger
</note>
  <outline>
    <contour>
      <point x="264" y="740" type="line"/>
      <point x="217" y="658" type="line"/>
      <point x="243" y="504" type="line"/>
      <point x="117" y="529" type="line"/>
      <point x="51" y="485" type="line"/>
      <point x="117" y="440" type="line"/>
      <point x="243" y="462" type="line"/>
      <point x="218" y="309" type="line"/>
      <point x="245" y="-138" type="line"/>
      <point x="291" y="-138" type="line"/>
      <point x="315" y="309" type="line"/>
      <point x="289" y="462" type="line"/>
      <point x="418" y="440" type="line"/>
      <point x="482" y="481" type="line"/>
      <point x="418" y="529" type="line"/>
      <point x="289" y="504" type="line"/>
      <point x="316" y="658" type="line"/>
    </contour>
  </outline>
</glyph>
<glyph name="bullet" format="2">
  <advance width="441"/>
  <unicode hex="2022"/>
  <note>
bullet
</note>
  <outline>
    <contour>
      <point x="221" y="491" type="curve" smooth="yes"/>
      <point x="147" y="491"/>
      <point x="87" y="431"/>
      <point x="87" y="357" type="curve" smooth="yes"/>
      <point x="87" y="283"/>
      <point x="147" y="223"/>
      <point x="221" y="223" type="curve" smooth="yes"/>
      <point x="295" y="223"/>
      <point x="354" y="283"/>
      <point x="354" y="357" type="curve" smooth="yes"/>
      <point x="354" y="431"/>
      <point x="295" y="491"/>
    </contour>
  </outline>
</glyph>
<glyph name="ellipsis" format="2">
  <advance width="714"/>
  <unicode hex="2026"/>
  <note>
ellipsis
</note>
  <outline>
    <contour>
      <point x="214" y="53" type="curve" smooth="yes"/>
      <point x="214" y="89"/>
      <point x="184" y="119"/>
      <point x="148" y="119" type="curve" smooth="yes"/>
      <point x="111" y="119"/>
      <point x="82" y="90"/>
      <point x="82" y="53" type="curve" smooth="yes"/>
      <point x="82" y="17"/>
      <point x="112" y="-13"/>
      <point x="148" y="-13" type="curve" smooth="yes"/>
      <point x="184" y="-13"/>
      <point x="214" y="17"/>
    </contour>
    <contour>
      <point x="425" y="53" type="curve" smooth="yes"/>
      <point x="425" y="89"/>
      <point x="395" y="119"/>
      <point x="359" y="119" type="curve" smooth="yes"/>
      <point x="322" y="119"/>
      <point x="293" y="90"/>
      <point x="293" y="53" type="curve" smooth="yes"/>
      <point x="293" y="17"/>
      <point x="323" y="-13"/>
      <point x="359" y="-13" type="curve" smooth="yes"/>
      <point x="395" y="-13"/>
      <point x="425" y="17"/>
    </contour>
    <contour>
      <point x="636" y="53" type="curve" smooth="yes"/>
      <point x="636" y="89"/>
      <point x="606" y="119"/>
      <point x="570" y="119" type="curve" smooth="yes"/>
      <point x="533" y="119"/>
      <point x="504" y="90"/>
      <point x="504" y="53" type="curve" smooth="yes"/>
      <point x="504" y="17"/>
      <point x="534" y="-13"/>
      <point x="570" y="-13" type="curve" smooth="yes"/>
      <point x="606" y="-13"/>
      <point x="636" y="17"/>
    </contour>
  </outline>
</glyph>
<glyph name="perthousand" format="2">
  <advance width="1307"/>
  <unicode hex="2030"/>
  <note>
perthousand
</note>
  <outline>
    <contour>
      <point x="613" y="730" type="line"/>
      <point x="240" y="-7" type="line"/>
      <point x="304" y="-7" type="line"/>
      <point x="679" y="730" type="line"/>
    </contour>
    <contour>
      <point x="214" y="730" type="curve" smooth="yes"/>
      <point x="97" y="730"/>
      <point x="43" y="636"/>
      <point x="43" y="520" type="curve" smooth="yes"/>
      <point x="43" y="405"/>
      <point x="88" y="309"/>
      <point x="204" y="309" type="curve" smooth="yes"/>
      <point x="321" y="309"/>
      <point x="375" y="405"/>
      <point x="375" y="520" type="curve" smooth="yes"/>
      <point x="375" y="635"/>
      <point x="331" y="730"/>
    </contour>
    <contour>
      <point x="209" y="678" type="curve" smooth="yes"/>
      <point x="295" y="678"/>
      <point x="308" y="595"/>
      <point x="308" y="520" type="curve" smooth="yes"/>
      <point x="308" y="444"/>
      <point x="295" y="362"/>
      <point x="209" y="362" type="curve" smooth="yes"/>
      <point x="124" y="362"/>
      <point x="109" y="444"/>
      <point x="109" y="520" type="curve" smooth="yes"/>
      <point x="109" y="594"/>
      <point x="125" y="678"/>
    </contour>
    <contour>
      <point x="703" y="411" type="curve" smooth="yes"/>
      <point x="586" y="411"/>
      <point x="532" y="317"/>
      <point x="532" y="201" type="curve" smooth="yes"/>
      <point x="532" y="86"/>
      <point x="577" y="-10"/>
      <point x="693" y="-10" type="curve" smooth="yes"/>
      <point x="810" y="-10"/>
      <point x="864" y="86"/>
      <point x="864" y="201" type="curve" smooth="yes"/>
      <point x="864" y="316"/>
      <point x="820" y="411"/>
    </contour>
    <contour>
      <point x="698" y="358" type="curve" smooth="yes"/>
      <point x="784" y="358"/>
      <point x="797" y="276"/>
      <point x="797" y="201" type="curve" smooth="yes"/>
      <point x="797" y="125"/>
      <point x="784" y="43"/>
      <point x="698" y="43" type="curve" smooth="yes"/>
      <point x="613" y="43"/>
      <point x="598" y="125"/>
      <point x="598" y="201" type="curve" smooth="yes"/>
      <point x="598" y="275"/>
      <point x="614" y="358"/>
    </contour>
    <contour>
      <point x="214" y="730" type="line"/>
      <point x="209" y="678" type="line"/>
      <point x="634" y="678" type="line"/>
      <point x="634" y="730" type="line"/>
    </contour>
    <contour>
      <point x="1103" y="411" type="curve" smooth="yes"/>
      <point x="986" y="411"/>
      <point x="932" y="317"/>
      <point x="932" y="201" type="curve" smooth="yes"/>
      <point x="932" y="86"/>
      <point x="977" y="-10"/>
      <point x="1093" y="-10" type="curve" smooth="yes"/>
      <point x="1210" y="-10"/>
      <point x="1264" y="86"/>
      <point x="1264" y="201" type="curve" smooth="yes"/>
      <point x="1264" y="316"/>
      <point x="1220" y="411"/>
    </contour>
    <contour>
      <point x="1098" y="358" type="curve" smooth="yes"/>
      <point x="1184" y="358"/>
      <point x="1197" y="276"/>
      <point x="1197" y="201" type="curve" smooth="yes"/>
      <point x="1197" y="125"/>
      <point x="1184" y="43"/>
      <point x="1098" y="43" type="curve" smooth="yes"/>
      <point x="1013" y="43"/>
      <point x="998" y="125"/>
      <point x="998" y="201" type="curve" smooth="yes"/>
      <point x="998" y="275"/>
      <point x="1014" y="358"/>
    </contour>
  </outline>
</glyph>
<glyph name="minute" format="2">
  <advance width="256"/>
  <unicode hex="2032"/>
  <outline>
    <contour>
      <point x="90" y="703" type="line"/>
      <point x="54" y="531" type="line"/>
      <point x="132" y="531" type="line"/>
      <point x="212" y="703" type="line"/>
    </contour>
  </outline>
</glyph>
<glyph name="second" format="2">
  <advance width="428"/>
  <unicode hex="2033"/>
  <outline>
    <contour>
      <point x="90" y="703" type="line"/>
      <point x="54" y="531" type="line"/>
      <point x="132" y="531" type="line"/>
      <point x="212" y="703" type="line"/>
    </contour>
    <contour>
      <point x="262" y="703" type="line"/>
      <point x="226" y="531" type="line"/>
      <point x="304" y="531" type="line"/>
      <point x="384" y="703" type="line"/>
    </contour>
  </outline>
</glyph>
<glyph name="guilsinglleft" format="2">
  <advance width="298"/>
  <unicode hex="2039"/>
  <note>
guilsinglleft
</note>
  <outline>
    <contour>
      <point x="45" y="333" type="line"/>
      <point x="194" y="171" type="line"/>
      <point x="253" y="179" type="line"/>
      <point x="135" y="333" type="line"/>
      <point x="251" y="485" type="line"/>
      <point x="190" y="497" type="line"/>
    </contour>
  </outline>
</glyph>
<glyph name="guilsinglright" format="2">
  <advance width="329"/>
  <unicode hex="203A"/>
  <note>
guilsinglright
</note>
  <outline>
    <contour>
      <point x="268" y="331" type="line"/>
      <point x="124" y="495" type="line"/>
      <point x="63" y="483" type="line"/>
      <point x="179" y="331" type="line"/>
      <point x="60" y="177" type="line"/>
      <point x="120" y="169" type="line"/>
    </contour>
  </outline>
</glyph>
<glyph name="commercialMinusSign" format="2">
  <advance width="468"/>
  <unicode hex="2052"/>
  <outline>
    <contour>
      <point x="334" y="727" type="line"/>
      <point x="65" y="-9" type="line"/>
      <point x="134" y="-9" type="line"/>
      <point x="401" y="727" type="line"/>
    </contour>
    <contour>
      <point x="200" y="671" type="curve" smooth="yes"/>
      <point x="200" y="707"/>
      <point x="170" y="737"/>
      <point x="134" y="737" type="curve" smooth="yes"/>
      <point x="97" y="737"/>
      <point x="68" y="708"/>
      <point x="68" y="671" type="curve" smooth="yes"/>
      <point x="68" y="635"/>
      <point x="98" y="605"/>
      <point x="134" y="605" type="curve" smooth="yes"/>
      <point x="170" y="605"/>
      <point x="200" y="635"/>
    </contour>
    <contour>
      <point x="403" y="54" type="curve" smooth="yes"/>
      <point x="403" y="90"/>
      <point x="373" y="120"/>
      <point x="337" y="120" type="curve" smooth="yes"/>
      <point x="300" y="120"/>
      <point x="271" y="91"/>
      <point x="271" y="54" type="curve" smooth="yes"/>
      <point x="271" y="18"/>
      <point x="301" y="-12"/>
      <point x="337" y="-12" type="curve" smooth="yes"/>
      <point x="373" y="-12"/>
      <point x="403" y="18"/>
    </contour>
  </outline>
</glyph>
<glyph name="foursuperior" format="2">
  <advance width="455"/>
  <unicode hex="2074"/>
  <outline>
    <contour>
      <point x="266" y="544" type="line"/>
      <point x="266" y="434" type="line"/>
      <point x="346" y="434" type="line"/>
      <point x="346" y="544" type="line"/>
      <point x="404" y="544" type="line"/>
      <point x="421" y="603" type="line"/>
      <point x="346" y="603" type="line"/>
      <point x="346" y="917" type="line"/>
      <point x="266" y="917" type="line"/>
      <point x="37" y="584" type="line"/>
      <point x="37" y="544" type="line"/>
    </contour>
    <contour>
      <point x="269" y="821" type="line"/>
      <point x="266" y="603" type="line"/>
      <point x="122" y="603" type="line"/>
    </contour>
  </outline>
</glyph>
<glyph name="fivesuperior" format="2">
  <advance width="455"/>
  <unicode hex="2075"/>
  <outline>
    <contour>
      <point x="147" y="919" type="line"/>
      <point x="99" y="732" type="line"/>
      <point x="236" y="705"/>
      <point x="277" y="666"/>
      <point x="277" y="593" type="curve" smooth="yes"/>
      <point x="277" y="515"/>
      <point x="222" y="482"/>
      <point x="134" y="482" type="curve" smooth="yes"/>
      <point x="115" y="482"/>
      <point x="95" y="483"/>
      <point x="74" y="486" type="curve"/>
      <point x="63" y="432" type="line"/>
      <point x="88" y="427"/>
      <point x="113" y="425"/>
      <point x="137" y="425" type="curve" smooth="yes"/>
      <point x="261" y="425"/>
      <point x="357" y="490"/>
      <point x="357" y="596" type="curve" smooth="yes"/>
      <point x="357" y="677"/>
      <point x="313" y="743"/>
      <point x="172" y="776" type="curve"/>
      <point x="193" y="849" type="line"/>
      <point x="378" y="849" type="line"/>
      <point x="395" y="919" type="line"/>
    </contour>
  </outline>
</glyph>
<glyph name="sevensuperior" format="2">
  <advance width="455"/>
  <unicode hex="2077"/>
  <outline>
    <contour>
      <point x="110" y="919" type="line"/>
      <point x="91" y="849" type="line"/>
      <point x="302" y="849" type="line"/>
      <point x="103" y="432" type="line"/>
      <point x="195" y="432" type="line"/>
      <point x="394" y="889" type="line"/>
      <point x="394" y="919" type="line"/>
    </contour>
  </outline>
</glyph>
<glyph name="ninesuperior" format="2">
  <advance width="455"/>
  <unicode hex="2079"/>
  <outline>
    <contour>
      <point x="119" y="424" type="line"/>
      <point x="277" y="453"/>
      <point x="398" y="577"/>
      <point x="398" y="749" type="curve" smooth="yes"/>
      <point x="398" y="871"/>
      <point x="318" y="928"/>
      <point x="238" y="928" type="curve" smooth="yes"/>
      <point x="128" y="928"/>
      <point x="66" y="840"/>
      <point x="66" y="757" type="curve" smooth="yes"/>
      <point x="66" y="668"/>
      <point x="133" y="612"/>
      <point x="210" y="612" type="curve" smooth="yes"/>
      <point x="248" y="612"/>
      <point x="288" y="625"/>
      <point x="324" y="654" type="curve"/>
      <point x="332" y="716" type="line"/>
      <point x="298" y="690"/>
      <point x="261" y="676"/>
      <point x="229" y="676" type="curve" smooth="yes"/>
      <point x="182" y="676"/>
      <point x="146" y="706"/>
      <point x="146" y="769" type="curve" smooth="yes"/>
      <point x="146" y="824"/>
      <point x="174" y="871"/>
      <point x="232" y="871" type="curve" smooth="yes"/>
      <point x="289" y="871"/>
      <point x="318" y="824"/>
      <point x="318" y="746" type="curve" smooth="yes"/>
      <point x="318" y="639"/>
      <point x="283" y="526"/>
      <point x="100" y="477" type="curve"/>
    </contour>
  </outline>
</glyph>
<glyph name="franc" format="2">
  <advance width="530"/>
  <unicode hex="20A3"/>
  <outline>
    <contour>
      <point x="82" y="697" type="line"/>
      <point x="96" y="631" type="line"/>
      <point x="96" y="0" type="line"/>
      <point x="189" y="0" type="line"/>
      <point x="189" y="324" type="line"/>
      <point x="424" y="324" type="line"/>
      <point x="424" y="392" type="line"/>
      <point x="189" y="392" type="line"/>
      <point x="189" y="628" type="line"/>
      <point x="485" y="628" type="line"/>
      <point x="485" y="697" type="line"/>
    </contour>
    <contour>
      <point x="34" y="209" type="line"/>
      <point x="24" y="147" type="line"/>
      <point x="348" y="147" type="line"/>
      <point x="358" y="209" type="line"/>
    </contour>
  </outline>
</glyph>
<glyph name="peseta" format="2">
  <advance width="605"/>
  <unicode hex="20A7"/>
  <outline>
    <contour>
      <point x="86" y="697" type="line"/>
      <point x="101" y="631" type="line"/>
      <point x="101" y="0" type="line"/>
      <point x="194" y="0" type="line"/>
      <point x="194" y="277" type="line"/>
      <point x="305" y="277" type="line" smooth="yes"/>
      <point x="440" y="277"/>
      <point x="549" y="341"/>
      <point x="549" y="487" type="curve" smooth="yes"/>
      <point x="549" y="644"/>
      <point x="448" y="697"/>
      <point x="304" y="697" type="curve" smooth="yes"/>
    </contour>
    <contour>
      <point x="194" y="628" type="line"/>
      <point x="304" y="628" type="line" smooth="yes"/>
      <point x="400" y="628"/>
      <point x="452" y="581"/>
      <point x="452" y="487" type="curve" smooth="yes"/>
      <point x="452" y="396"/>
      <point x="395" y="345"/>
      <point x="303" y="345" type="curve" smooth="yes"/>
      <point x="194" y="345" type="line"/>
    </contour>
    <contour>
      <point x="39" y="186" type="line"/>
      <point x="29" y="124" type="line"/>
      <point x="353" y="124" type="line"/>
      <point x="363" y="186" type="line"/>
    </contour>
  </outline>
</glyph>
<glyph name="won" format="2">
  <advance width="914"/>
  <unicode hex="20A9"/>
  <outline>
    <contour>
      <point x="149" y="697" type="line"/>
      <point x="51" y="697" type="line"/>
      <point x="243" y="-5" type="line"/>
      <point x="320" y="-5" type="line"/>
      <point x="435" y="426" type="line" smooth="yes"/>
      <point x="443" y="454"/>
      <point x="450" y="482"/>
      <point x="458" y="520" type="curve"/>
      <point x="465" y="483"/>
      <point x="473" y="456"/>
      <point x="480" y="429" type="curve" smooth="yes"/>
      <point x="597" y="-5" type="line"/>
      <point x="674" y="-5" type="line"/>
      <point x="863" y="697" type="line"/>
      <point x="785" y="697" type="line"/>
      <point x="670" y="266" type="line" smooth="yes"/>
      <point x="661" y="234"/>
      <point x="653" y="202"/>
      <point x="644" y="160" type="curve"/>
      <point x="635" y="204"/>
      <point x="625" y="239"/>
      <point x="616" y="273" type="curve" smooth="yes"/>
      <point x="504" y="697" type="line"/>
      <point x="430" y="697" type="line"/>
      <point x="316" y="268" type="line" smooth="yes"/>
      <point x="307" y="235"/>
      <point x="299" y="203"/>
      <point x="290" y="160" type="curve"/>
      <point x="280" y="206"/>
      <point x="271" y="241"/>
      <point x="261" y="277" type="curve" smooth="yes"/>
    </contour>
    <contour>
      <point x="37" y="442" type="line"/>
      <point x="27" y="380" type="line"/>
      <point x="877" y="380" type="line"/>
      <point x="887" y="442" type="line"/>
    </contour>
    <contour>
      <point x="37" y="306" type="line"/>
      <point x="27" y="244" type="line"/>
      <point x="877" y="244" type="line"/>
      <point x="887" y="306" type="line"/>
    </contour>
  </outline>
</glyph>
<glyph name="kip" format="2">
  <advance width="633"/>
  <unicode hex="20AD"/>
  <outline>
    <contour>
      <point x="82" y="697" type="line"/>
      <point x="96" y="631" type="line"/>
      <point x="96" y="0" type="line"/>
      <point x="189" y="0" type="line"/>
      <point x="189" y="364" type="line"/>
      <point x="477" y="0" type="line"/>
      <point x="593" y="0" type="line"/>
      <point x="288" y="389" type="line"/>
      <point x="575" y="697" type="line"/>
      <point x="478" y="697" type="line"/>
      <point x="189" y="388" type="line"/>
      <point x="189" y="697" type="line"/>
    </contour>
    <contour>
      <point x="47" y="407" type="line"/>
      <point x="37" y="345" type="line"/>
      <point x="567" y="345" type="line"/>
      <point x="577" y="407" type="line"/>
    </contour>
  </outline>
</glyph>
<glyph name="peso" format="2">
  <advance width="645"/>
  <unicode hex="20B1"/>
  <outline>
    <contour>
      <point x="86" y="697" type="line"/>
      <point x="101" y="631" type="line"/>
      <point x="101" y="0" type="line"/>
      <point x="194" y="0" type="line"/>
      <point x="194" y="257" type="line"/>
      <point x="305" y="257" type="line" smooth="yes"/>
      <point x="440" y="257"/>
      <point x="549" y="331"/>
      <point x="549" y="477" type="curve" smooth="yes"/>
      <point x="549" y="634"/>
      <point x="448" y="697"/>
      <point x="304" y="697" type="curve" smooth="yes"/>
    </contour>
    <contour>
      <point x="194" y="628" type="line"/>
      <point x="304" y="628" type="line" smooth="yes"/>
      <point x="400" y="628"/>
      <point x="452" y="571"/>
      <point x="452" y="477" type="curve" smooth="yes"/>
      <point x="452" y="386"/>
      <point x="395" y="325"/>
      <point x="303" y="325" type="curve" smooth="yes"/>
      <point x="194" y="325" type="line"/>
    </contour>
    <contour>
      <point x="37" y="570" type="line"/>
      <point x="27" y="508" type="line"/>
      <point x="617" y="508" type="line"/>
      <point x="627" y="570" type="line"/>
    </contour>
    <contour>
      <point x="37" y="449" type="line"/>
      <point x="27" y="387" type="line"/>
      <point x="617" y="387" type="line"/>
      <point x="627" y="449" type="line"/>
    </contour>
  </outline>
</glyph>
<glyph name="guarani" format="2">
  <advance width="662"/>
  <unicode hex="20B2"/>
  <outline>
    <contour>
      <point x="354" y="697" type="curve" smooth="yes"/>
      <point x="138" y="697"/>
      <point x="51" y="508"/>
      <point x="51" y="335" type="curve" smooth="yes"/>
      <point x="51" y="181"/>
      <point x="128" y="-12"/>
      <point x="318" y="-12" type="curve" smooth="yes"/>
      <point x="404" y="-12"/>
      <point x="459" y="13"/>
      <point x="518" y="76" type="curve"/>
      <point x="550" y="0" type="line"/>
      <point x="600" y="0" type="line"/>
      <point x="597" y="55"/>
      <point x="591" y="111"/>
      <point x="591" y="166" type="curve" smooth="yes"/>
      <point x="591" y="355" type="line"/>
      <point x="330" y="355" type="line"/>
      <point x="318" y="287" type="line"/>
      <point x="497" y="287" type="line"/>
      <point x="497" y="241" type="line" smooth="yes"/>
      <point x="497" y="138"/>
      <point x="439" y="62"/>
      <point x="334" y="62" type="curve" smooth="yes"/>
      <point x="184" y="62"/>
      <point x="149" y="238"/>
      <point x="149" y="344" type="curve" smooth="yes"/>
      <point x="149" y="458"/>
      <point x="189" y="625"/>
      <point x="344" y="625" type="curve" smooth="yes"/>
      <point x="427" y="625"/>
      <point x="467" y="602"/>
      <point x="530" y="553" type="curve"/>
      <point x="583" y="614" type="line"/>
      <point x="517" y="670"/>
      <point x="431" y="697"/>
    </contour>
    <contour>
      <point x="303" y="-102" type="line"/>
      <point x="365" y="-112" type="line"/>
      <point x="365" y="794" type="line"/>
      <point x="303" y="804" type="line"/>
    </contour>
  </outline>
</glyph>
<glyph name="rupeeIndian" format="2">
  <advance width="605"/>
  <unicode hex="20B9"/>
  <outline>
    <contour>
      <point x="193" y="697" type="curve" smooth="yes"/>
      <point x="74" y="697" type="line"/>
      <point x="74" y="635" type="line"/>
      <point x="193" y="635" type="line" smooth="yes"/>
      <point x="289" y="635"/>
      <point x="331" y="591"/>
      <point x="331" y="497" type="curve" smooth="yes"/>
      <point x="331" y="406"/>
      <point x="284" y="365"/>
      <point x="192" y="365" type="curve" smooth="yes"/>
      <point x="74" y="365" type="line"/>
      <point x="74" y="297" type="line"/>
      <point x="194" y="297" type="line" smooth="yes"/>
      <point x="329" y="297"/>
      <point x="428" y="354"/>
      <point x="428" y="500" type="curve" smooth="yes"/>
      <point x="428" y="657"/>
      <point x="337" y="697"/>
    </contour>
    <contour>
      <point x="154" y="344" type="line"/>
      <point x="74" y="297" type="line"/>
      <point x="317" y="0" type="line"/>
      <point x="437" y="0" type="line"/>
    </contour>
    <contour>
      <point x="74" y="697" type="line"/>
      <point x="74" y="635" type="line"/>
      <point x="538" y="635" type="line"/>
      <point x="548" y="697" type="line"/>
    </contour>
    <contour>
      <point x="74" y="531" type="line"/>
      <point x="74" y="469" type="line"/>
      <point x="511" y="469" type="line"/>
      <point x="521" y="531" type="line"/>
    </contour>
  </outline>
</glyph>
<glyph name="published" format="2">
  <advance width="634"/>
  <unicode hex="2117"/>
  <outline>
    <contour>
      <point x="589" y="250" type="curve" smooth="yes"/>
      <point x="589" y="399"/>
      <point x="466" y="522"/>
      <point x="317" y="522" type="curve" smooth="yes"/>
      <point x="167" y="522"/>
      <point x="45" y="400"/>
      <point x="45" y="250" type="curve" smooth="yes"/>
      <point x="45" y="100"/>
      <point x="167" y="-22"/>
      <point x="317" y="-22" type="curve" smooth="yes"/>
      <point x="466" y="-22"/>
      <point x="589" y="101"/>
    </contour>
    <contour>
      <point x="550" y="250" type="curve" smooth="yes"/>
      <point x="550" y="122"/>
      <point x="445" y="17"/>
      <point x="317" y="17" type="curve" smooth="yes"/>
      <point x="189" y="17"/>
      <point x="84" y="122"/>
      <point x="84" y="250" type="curve" smooth="yes"/>
      <point x="84" y="378"/>
      <point x="189" y="483"/>
      <point x="317" y="483" type="curve" smooth="yes"/>
      <point x="445" y="483"/>
      <point x="550" y="378"/>
    </contour>
    <contour>
      <point x="222" y="409" type="line"/>
      <point x="228" y="370" type="line"/>
      <point x="228" y="89" type="line"/>
      <point x="290" y="89" type="line"/>
      <point x="290" y="215" type="line"/>
      <point x="334" y="215" type="line" smooth="yes"/>
      <point x="394" y="215"/>
      <point x="445" y="251"/>
      <point x="445" y="315" type="curve" smooth="yes"/>
      <point x="445" y="384"/>
      <point x="398" y="409"/>
      <point x="333" y="409" type="curve" smooth="yes"/>
    </contour>
    <contour>
      <point x="290" y="368" type="line"/>
      <point x="326" y="368" type="line" smooth="yes"/>
      <point x="369" y="368"/>
      <point x="383" y="353"/>
      <point x="383" y="312" type="curve" smooth="yes"/>
      <point x="383" y="272"/>
      <point x="367" y="255"/>
      <point x="326" y="255" type="curve" smooth="yes"/>
      <point x="290" y="255" type="line"/>
    </contour>
  </outline>
</glyph>
<glyph name="trademark" format="2">
  <advance width="568"/>
  <unicode hex="2122"/>
  <note>
trademark
</note>
  <outline>
    <contour>
      <point x="49" y="718" type="line"/>
      <point x="49" y="681" type="line"/>
      <point x="120" y="681" type="line"/>
      <point x="120" y="494" type="line"/>
      <point x="170" y="494" type="line"/>
      <point x="170" y="681" type="line"/>
      <point x="242" y="681" type="line"/>
      <point x="242" y="718" type="line"/>
    </contour>
    <contour>
      <point x="264" y="718" type="line"/>
      <point x="264" y="493" type="line"/>
      <point x="306" y="493" type="line"/>
      <point x="306" y="648" type="line"/>
      <point x="366" y="493" type="line"/>
      <point x="396" y="493" type="line"/>
      <point x="455" y="644" type="line"/>
      <point x="455" y="493" type="line"/>
      <point x="504" y="493" type="line"/>
      <point x="504" y="718" type="line"/>
      <point x="440" y="718" type="line"/>
      <point x="385" y="573" type="line"/>
      <point x="330" y="718" type="line"/>
    </contour>
  </outline>
</glyph>
<glyph name="Ohm" format="2">
  <advance width="782"/>
  <unicode hex="2126"/>
  <note>
uni2126
</note>
  <outline>
    <contour>
      <point x="467" y="53" type="curve"/>
      <point x="467" y="0" type="line"/>
      <point x="725" y="0" type="line"/>
      <point x="725" y="69" type="line"/>
      <point x="653" y="69" type="line"/>
      <point x="586" y="64" type="line"/>
      <point x="666" y="122"/>
      <point x="714" y="241"/>
      <point x="714" y="361" type="curve" smooth="yes"/>
      <point x="714" y="565"/>
      <point x="605" y="734"/>
      <point x="391" y="734" type="curve" smooth="yes"/>
      <point x="177" y="734"/>
      <point x="68" y="565"/>
      <point x="68" y="361" type="curve" smooth="yes"/>
      <point x="68" y="241"/>
      <point x="116" y="122"/>
      <point x="196" y="64" type="curve"/>
      <point x="129" y="69" type="line"/>
      <point x="56" y="69" type="line"/>
      <point x="56" y="0" type="line"/>
      <point x="314" y="0" type="line"/>
      <point x="314" y="53" type="line"/>
      <point x="205" y="95"/>
      <point x="166" y="228"/>
      <point x="166" y="348" type="curve" smooth="yes"/>
      <point x="166" y="494"/>
      <point x="223" y="665"/>
      <point x="391" y="665" type="curve" smooth="yes"/>
      <point x="559" y="665"/>
      <point x="616" y="494"/>
      <point x="616" y="348" type="curve" smooth="yes"/>
      <point x="616" y="228"/>
      <point x="577" y="95"/>
    </contour>
  </outline>
</glyph>
<glyph name="increment" format="2">
  <advance width="631"/>
  <unicode hex="2206"/>
  <note>
uni2206
</note>
  <outline>
    <contour>
      <point x="15" y="53" type="line"/>
      <point x="15" y="0" type="line"/>
      <point x="614" y="0" type="line"/>
      <point x="614" y="53" type="line"/>
      <point x="354" y="723" type="line"/>
      <point x="276" y="723" type="line"/>
    </contour>
    <contour>
      <point x="499" y="66" type="curve"/>
      <point x="97" y="66" type="line"/>
      <point x="151" y="210"/>
      <point x="205" y="355"/>
      <point x="259" y="499" type="curve"/>
      <point x="272" y="534"/>
      <point x="286" y="570"/>
      <point x="299" y="605" type="curve"/>
      <point x="309" y="576"/>
      <point x="321" y="532"/>
      <point x="334" y="496" type="curve" smooth="yes"/>
      <point x="384" y="363"/>
      <point x="447" y="202"/>
    </contour>
  </outline>
</glyph>
<glyph name="summation" format="2">
  <advance width="726"/>
  <unicode hex="2211"/>
  <note>
summation
</note>
  <outline>
    <contour>
      <point x="55" y="-130" type="line"/>
      <point x="55" y="-228" type="line"/>
      <point x="671" y="-228" type="line"/>
      <point x="671" y="-127" type="line"/>
      <point x="139" y="-127" type="line"/>
      <point x="451" y="294" type="line"/>
      <point x="176" y="654" type="line"/>
      <point x="661" y="654" type="line"/>
      <point x="661" y="723" type="line"/>
      <point x="55" y="723" type="line"/>
      <point x="55" y="654" type="line"/>
      <point x="345" y="266" type="line"/>
    </contour>
  </outline>
</glyph>
<glyph name="minus" format="2">
  <advance width="636"/>
  <unicode hex="2212"/>
  <note>
minus
</note>
  <outline>
    <contour>
      <point x="72" y="277" type="line"/>
      <point x="72" y="216" type="line"/>
      <point x="564" y="216" type="line"/>
      <point x="564" y="277" type="line"/>
    </contour>
  </outline>
</glyph>
<glyph name="infinity" format="2">
  <advance width="812"/>
  <unicode hex="221E"/>
  <note>
infinity
</note>
  <outline>
    <contour>
      <point x="232" y="414" type="curve" smooth="yes"/>
      <point x="137" y="414"/>
      <point x="78" y="344"/>
      <point x="78" y="248" type="curve" smooth="yes"/>
      <point x="78" y="153"/>
      <point x="137" y="82"/>
      <point x="231" y="82" type="curve" smooth="yes"/>
      <point x="308" y="82"/>
      <point x="361" y="139"/>
      <point x="406" y="197" type="curve"/>
      <point x="451" y="139"/>
      <point x="504" y="82"/>
      <point x="581" y="82" type="curve" smooth="yes"/>
      <point x="675" y="82"/>
      <point x="734" y="153"/>
      <point x="734" y="248" type="curve" smooth="yes"/>
      <point x="734" y="344"/>
      <point x="675" y="414"/>
      <point x="580" y="414" type="curve" smooth="yes"/>
      <point x="504" y="414"/>
      <point x="451" y="357"/>
      <point x="406" y="300" type="curve"/>
      <point x="361" y="357"/>
      <point x="308" y="414"/>
    </contour>
    <contour>
      <point x="232" y="333" type="curve" smooth="yes"/>
      <point x="288" y="333"/>
      <point x="330" y="288"/>
      <point x="364" y="248" type="curve"/>
      <point x="330" y="207"/>
      <point x="287" y="164"/>
      <point x="230" y="164" type="curve" smooth="yes"/>
      <point x="179" y="164"/>
      <point x="144" y="196"/>
      <point x="144" y="248" type="curve" smooth="yes"/>
      <point x="144" y="300"/>
      <point x="180" y="333"/>
    </contour>
    <contour>
      <point x="580" y="333" type="curve" smooth="yes"/>
      <point x="632" y="333"/>
      <point x="668" y="300"/>
      <point x="668" y="248" type="curve" smooth="yes"/>
      <point x="668" y="196"/>
      <point x="633" y="164"/>
      <point x="582" y="164" type="curve" smooth="yes"/>
      <point x="525" y="164"/>
      <point x="482" y="207"/>
      <point x="448" y="248" type="curve"/>
      <point x="482" y="288"/>
      <point x="524" y="333"/>
    </contour>
  </outline>
</glyph>
<glyph name="approxequal" format="2">
  <advance width="657"/>
  <unicode hex="2248"/>
  <note>
approxequal
</note>
  <outline>
    <contour>
      <point x="83" y="322" type="curve"/>
      <point x="133" y="290" type="line"/>
      <point x="143" y="305"/>
      <point x="174" y="351"/>
      <point x="220" y="351" type="curve" smooth="yes"/>
      <point x="292" y="351"/>
      <point x="344" y="282"/>
      <point x="436" y="282" type="curve" smooth="yes"/>
      <point x="510" y="282"/>
      <point x="560" y="355"/>
      <point x="571" y="376" type="curve"/>
      <point x="520" y="408" type="line"/>
      <point x="514" y="394"/>
      <point x="479" y="347"/>
      <point x="433" y="347" type="curve" smooth="yes"/>
      <point x="361" y="347"/>
      <point x="309" y="416"/>
      <point x="217" y="416" type="curve" smooth="yes"/>
      <point x="143" y="416"/>
      <point x="93" y="343"/>
    </contour>
    <contour>
      <point x="83" y="131" type="curve"/>
      <point x="133" y="99" type="line"/>
      <point x="143" y="114"/>
      <point x="174" y="160"/>
      <point x="220" y="160" type="curve" smooth="yes"/>
      <point x="292" y="160"/>
      <point x="344" y="91"/>
      <point x="436" y="91" type="curve" smooth="yes"/>
      <point x="510" y="91"/>
      <point x="560" y="164"/>
      <point x="571" y="185" type="curve"/>
      <point x="520" y="217" type="line"/>
      <point x="514" y="203"/>
      <point x="479" y="156"/>
      <point x="433" y="156" type="curve" smooth="yes"/>
      <point x="361" y="156"/>
      <point x="309" y="225"/>
      <point x="217" y="225" type="curve" smooth="yes"/>
      <point x="143" y="225"/>
      <point x="93" y="152"/>
    </contour>
  </outline>
</glyph>
<glyph name="notequal" format="2">
  <advance width="638"/>
  <unicode hex="2260"/>
  <note>
notequal
</note>
  <outline>
    <contour>
      <point x="258" y="-10" type="line"/>
      <point x="304" y="119" type="line"/>
      <point x="565" y="119" type="line"/>
      <point x="565" y="181" type="line"/>
      <point x="326" y="181" type="line"/>
      <point x="374" y="312" type="line"/>
      <point x="565" y="312" type="line"/>
      <point x="565" y="374" type="line"/>
      <point x="396" y="374" type="line"/>
      <point x="444" y="506" type="line"/>
      <point x="380" y="506" type="line"/>
      <point x="332" y="374" type="line"/>
      <point x="72" y="374" type="line"/>
      <point x="72" y="312" type="line"/>
      <point x="310" y="312" type="line"/>
      <point x="262" y="181" type="line"/>
      <point x="72" y="181" type="line"/>
      <point x="72" y="119" type="line"/>
      <point x="239" y="119" type="line"/>
      <point x="193" y="-10" type="line"/>
    </contour>
  </outline>
</glyph>
<glyph name="greaterequal" format="2">
  <advance width="630"/>
  <unicode hex="2265"/>
  <note>
greaterequal
</note>
  <outline>
    <contour>
      <point x="66" y="163" type="line"/>
      <point x="66" y="87" type="line"/>
      <point x="564" y="258" type="line"/>
      <point x="564" y="333" type="line"/>
      <point x="66" y="502" type="line"/>
      <point x="66" y="425" type="line"/>
      <point x="468" y="294" type="line"/>
    </contour>
    <contour>
      <point x="66" y="70" type="line"/>
      <point x="66" y="0" type="line"/>
      <point x="564" y="0" type="line"/>
      <point x="564" y="70" type="line"/>
    </contour>
  </outline>
</glyph>
<glyph name="lozenge" format="2">
  <advance width="504"/>
  <unicode hex="25CA"/>
  <note>
lozenge
</note>
  <outline>
    <contour>
      <point x="232" y="732" type="line"/>
      <point x="37" y="360" type="line"/>
      <point x="232" y="-11" type="line"/>
      <point x="272" y="-11" type="line"/>
      <point x="467" y="360" type="line"/>
      <point x="272" y="732" type="line"/>
    </contour>
    <contour>
      <point x="248" y="646" type="line"/>
      <point x="254" y="646" type="line"/>
      <point x="402" y="360" type="line"/>
      <point x="254" y="70" type="line"/>
      <point x="250" y="70" type="line"/>
      <point x="102" y="360" type="line"/>
    </contour>
  </outline>
</glyph>
<glyph name="leftanglebracket-math" format="2">
  <advance width="408"/>
  <unicode hex="27E8"/>
  <outline>
    <contour>
      <point x="50" y="293" type="line"/>
      <point x="299" y="-69" type="line"/>
      <point x="358" y="-61" type="line"/>
      <point x="140" y="293" type="line"/>
      <point x="356" y="645" type="line"/>
      <point x="295" y="657" type="line"/>
    </contour>
  </outline>
</glyph>
<glyph name="rightanglebracket-math" format="2">
  <advance width="408"/>
  <unicode hex="27E9"/>
  <outline>
    <contour>
      <point x="358" y="295" type="line"/>
      <point x="109" y="657" type="line"/>
      <point x="50" y="649" type="line"/>
      <point x="268" y="295" type="line"/>
      <point x="52" y="-57" type="line"/>
      <point x="113" y="-69" type="line"/>
    </contour>
  </outline>
</glyph>
<glyph name="fi" format="2">
  <advance width="548"/>
  <unicode hex="FB01"/>
  <note>
fi
</note>
  <outline>
    <contour>
      <point x="297" y="769" type="curve" smooth="yes"/>
      <point x="184" y="769"/>
      <point x="129" y="705"/>
      <point x="109" y="599" type="curve" smooth="yes"/>
      <point x="94" y="511"/>
      <point x="108" y="495"/>
      <point x="20" y="486" type="curve"/>
      <point x="20" y="434" type="line"/>
      <point x="95" y="434" type="line"/>
      <point x="95" y="-1" type="line"/>
      <point x="178" y="-1" type="line"/>
      <point x="178" y="434" type="line"/>
      <point x="385" y="434" type="line"/>
      <point x="385" y="-1" type="line"/>
      <point x="467" y="-1" type="line"/>
      <point x="467" y="497" type="line"/>
      <point x="177" y="497" type="line"/>
      <point x="177" y="596"/>
      <point x="187" y="707"/>
      <point x="299" y="707" type="curve" smooth="yes"/>
      <point x="346" y="707"/>
      <point x="371" y="677"/>
      <point x="380" y="631" type="curve"/>
      <point x="463" y="656" type="line"/>
      <point x="437" y="732"/>
      <point x="374" y="769"/>
    </contour>
  </outline>
</glyph>
<glyph name="IJacute" format="2">
  <advance width="536"/>
  <outline>
    <contour>
      <point x="73" y="728" type="line"/>
      <point x="74" y="722"/>
      <point x="87" y="664"/>
      <point x="87" y="662" type="curve" smooth="yes"/>
      <point x="87" y="0" type="line"/>
      <point x="180" y="0" type="line"/>
      <point x="180" y="728" type="line"/>
    </contour>
    <contour>
      <point x="341" y="728" type="line"/>
      <point x="356" y="662" type="line"/>
      <point x="356" y="55" type="line" smooth="yes"/>
      <point x="356" y="-29"/>
      <point x="350" y="-144"/>
      <point x="245" y="-159" type="curve"/>
      <point x="257" y="-211" type="line"/>
      <point x="419" y="-196"/>
      <point x="449" y="-78"/>
      <point x="449" y="61" type="curve" smooth="yes"/>
      <point x="449" y="728" type="line"/>
    </contour>
    <contour>
      <point x="183" y="905" type="line"/>
      <point x="87" y="774" type="line"/>
      <point x="165" y="774" type="line"/>
      <point x="305" y="905" type="line"/>
    </contour>
    <contour>
      <point x="452" y="905" type="line"/>
      <point x="356" y="774" type="line"/>
      <point x="434" y="774" type="line"/>
      <point x="574" y="905" type="line"/>
    </contour>
  </outline>
</glyph>
<glyph name="acute.case" format="2">
  <advance width="278"/>
  <anchor x="73" y="728" name="_top"/>
  <outline>
    <contour>
      <point x="126" y="905" type="line"/>
      <point x="30" y="774" type="line"/>
      <point x="108" y="774" type="line"/>
      <point x="248" y="905" type="line"/>
    </contour>
  </outline>
</glyph>
<glyph name="acute.loclPLK.case" format="2">
  <advance width="218"/>
  <anchor x="73" y="728" name="_top"/>
  <outline>
    <contour>
      <point x="66" y="905" type="line"/>
      <point x="30" y="774" type="line"/>
      <point x="108" y="774" type="line"/>
      <point x="188" y="905" type="line"/>
    </contour>
  </outline>
</glyph>
<glyph name="acute.loclPLK" format="2">
  <advance width="219"/>
  <anchor x="73" y="497" name="_top"/>
  <outline>
    <contour>
      <point x="67" y="733" type="line"/>
      <point x="31" y="581" type="line"/>
      <point x="109" y="581" type="line"/>
      <point x="189" y="733" type="line"/>
    </contour>
  </outline>
</glyph>
<glyph name="breveacute.case" format="2">
  <advance width="279"/>
  <anchor x="140" y="728" name="_top"/>
  <outline>
    <contour>
      <point x="279" y="899" type="curve"/>
      <point x="230" y="899" type="line"/>
      <point x="219" y="867"/>
      <point x="188" y="849"/>
      <point x="140" y="849" type="curve" smooth="yes"/>
      <point x="92" y="849"/>
      <point x="58" y="867"/>
      <point x="50" y="899" type="curve"/>
      <point x="0" y="899" type="line"/>
      <point x="7" y="830"/>
      <point x="51" y="780"/>
      <point x="138" y="780" type="curve" smooth="yes"/>
      <point x="228" y="780"/>
      <point x="270" y="830"/>
    </contour>
    <contour>
      <point x="185" y="1009" type="line"/>
      <point x="109" y="898" type="line"/>
      <point x="167" y="898" type="line"/>
      <point x="287" y="1009" type="line"/>
    </contour>
  </outline>
</glyph>
<glyph name="brevebelow" format="2">
  <advance width="279"/>
  <anchor x="140" y="0" name="bottom"/>
  <outline>
    <contour>
      <point x="279" y="-62" type="curve"/>
      <point x="230" y="-62" type="line"/>
      <point x="219" y="-109"/>
      <point x="188" y="-132"/>
      <point x="140" y="-132" type="curve" smooth="yes"/>
      <point x="92" y="-132"/>
      <point x="60" y="-110"/>
      <point x="50" y="-62" type="curve"/>
      <point x="0" y="-62" type="line"/>
      <point x="9" y="-144"/>
      <point x="53" y="-201"/>
      <point x="140" y="-201" type="curve" smooth="yes"/>
      <point x="230" y="-201"/>
      <point x="270" y="-146"/>
    </contour>
  </outline>
</glyph>
<glyph name="brevehook" format="2">
  <advance width="279"/>
  <anchor x="140" y="497" name="_top"/>
  <outline>
    <contour>
      <point x="279" y="728" type="curve"/>
      <point x="230" y="728" type="line"/>
      <point x="219" y="681"/>
      <point x="188" y="658"/>
      <point x="140" y="658" type="curve" smooth="yes"/>
      <point x="92" y="658"/>
      <point x="60" y="680"/>
      <point x="50" y="728" type="curve"/>
      <point x="0" y="728" type="line"/>
      <point x="9" y="646"/>
      <point x="53" y="589"/>
      <point x="140" y="589" type="curve" smooth="yes"/>
      <point x="230" y="589"/>
      <point x="270" y="644"/>
    </contour>
    <contour>
      <point x="123" y="726" type="line"/>
      <point x="156" y="726" type="line"/>
      <point x="163" y="767" type="line"/>
      <point x="215" y="770"/>
      <point x="248" y="797"/>
      <point x="248" y="843" type="curve" smooth="yes"/>
      <point x="248" y="889"/>
      <point x="207" y="915"/>
      <point x="158" y="915" type="curve" smooth="yes"/>
      <point x="128" y="915"/>
      <point x="98" y="906"/>
      <point x="71" y="887" type="curve"/>
      <point x="91" y="849" type="line"/>
      <point x="107" y="860"/>
      <point x="126" y="866"/>
      <point x="143" y="866" type="curve" smooth="yes"/>
      <point x="164" y="866"/>
      <point x="180" y="857"/>
      <point x="180" y="837" type="curve" smooth="yes"/>
      <point x="180" y="808"/>
      <point x="159" y="801"/>
      <point x="138" y="801" type="curve" smooth="yes"/>
      <point x="129" y="801"/>
      <point x="120" y="802"/>
      <point x="113" y="804" type="curve"/>
    </contour>
  </outline>
</glyph>
<glyph name="breveinverted.case" format="2">
  <advance width="279"/>
  <anchor x="140" y="728" name="_top"/>
  <outline>
    <contour>
      <point x="0" y="780" type="curve"/>
      <point x="49" y="780" type="line"/>
      <point x="60" y="812"/>
      <point x="91" y="830"/>
      <point x="139" y="830" type="curve" smooth="yes"/>
      <point x="187" y="830"/>
      <point x="221" y="812"/>
      <point x="229" y="780" type="curve"/>
      <point x="279" y="780" type="line"/>
      <point x="272" y="849"/>
      <point x="228" y="899"/>
      <point x="141" y="899" type="curve" smooth="yes"/>
      <point x="51" y="899"/>
      <point x="9" y="849"/>
    </contour>
  </outline>
</glyph>
<glyph name="brevetilde" format="2">
  <advance width="295"/>
  <anchor x="148" y="497" name="_top"/>
  <outline>
    <contour>
      <point x="287" y="728" type="curve"/>
      <point x="238" y="728" type="line"/>
      <point x="227" y="681"/>
      <point x="196" y="658"/>
      <point x="148" y="658" type="curve" smooth="yes"/>
      <point x="100" y="658"/>
      <point x="68" y="680"/>
      <point x="58" y="728" type="curve"/>
      <point x="8" y="728" type="line"/>
      <point x="17" y="646"/>
      <point x="61" y="589"/>
      <point x="148" y="589" type="curve" smooth="yes"/>
      <point x="238" y="589"/>
      <point x="278" y="644"/>
    </contour>
    <contour>
      <point x="287" y="860" type="curve"/>
      <point x="240" y="860" type="line"/>
      <point x="235" y="845"/>
      <point x="225" y="834"/>
      <point x="209" y="834" type="curve" smooth="yes"/>
      <point x="169" y="834"/>
      <point x="150" y="873"/>
      <point x="97" y="873" type="curve" smooth="yes"/>
      <point x="42" y="873"/>
      <point x="11" y="827"/>
      <point x="8" y="773" type="curve"/>
      <point x="57" y="773" type="line"/>
      <point x="59" y="786"/>
      <point x="69" y="800"/>
      <point x="86" y="800" type="curve" smooth="yes"/>
      <point x="137" y="800"/>
      <point x="150" y="761"/>
      <point x="207" y="761" type="curve" smooth="yes"/>
      <point x="259" y="761"/>
      <point x="285" y="810"/>
    </contour>
  </outline>
</glyph>
<glyph name="circumflex.case" format="2">
  <advance width="291"/>
  <anchor x="143" y="728" name="_top"/>
  <outline>
    <contour>
      <point x="145" y="834" type="line"/>
      <point x="221" y="773" type="line"/>
      <point x="288" y="773" type="line"/>
      <point x="186" y="907" type="line"/>
      <point x="103" y="907" type="line"/>
      <point x="-3" y="772" type="line"/>
      <point x="66" y="772" type="line"/>
    </contour>
  </outline>
</glyph>
<glyph name="circumflexacute.case" format="2">
  <advance width="291"/>
  <anchor x="143" y="728" name="_top"/>
  <outline>
    <contour>
      <point x="143" y="834" type="line"/>
      <point x="222" y="772" type="line"/>
      <point x="291" y="772" type="line"/>
      <point x="185" y="907" type="line"/>
      <point x="102" y="907" type="line"/>
      <point x="0" y="773" type="line"/>
      <point x="67" y="773" type="line"/>
    </contour>
    <contour>
      <point x="164" y="1035" type="line"/>
      <point x="111" y="934" type="line"/>
      <point x="181" y="934" type="line"/>
      <point x="266" y="1035" type="line"/>
    </contour>
  </outline>
</glyph>
<glyph name="circumflexgrave" format="2">
  <advance width="291"/>
  <anchor x="148" y="497" name="_top"/>
  <outline>
    <contour>
      <point x="148" y="661" type="line"/>
      <point x="224" y="580" type="line"/>
      <point x="291" y="580" type="line"/>
      <point x="189" y="734" type="line"/>
      <point x="106" y="734" type="line"/>
      <point x="0" y="579" type="line"/>
      <point x="69" y="579" type="line"/>
    </contour>
    <contour>
      <point x="127" y="886" type="line"/>
      <point x="15" y="886" type="line"/>
      <point x="115" y="774" type="line"/>
      <point x="183" y="774" type="line"/>
    </contour>
  </outline>
</glyph>
<glyph name="circumflexhook.case" format="2">
  <advance width="291"/>
  <anchor x="143" y="728" name="_top"/>
  <outline>
    <contour>
      <point x="143" y="834" type="line"/>
      <point x="222" y="772" type="line"/>
      <point x="291" y="772" type="line"/>
      <point x="185" y="907" type="line"/>
      <point x="102" y="907" type="line"/>
      <point x="0" y="773" type="line"/>
      <point x="67" y="773" type="line"/>
    </contour>
    <contour>
      <point x="127" y="927" type="line"/>
      <point x="160" y="927" type="line"/>
      <point x="167" y="968" type="line"/>
      <point x="219" y="971"/>
      <point x="252" y="998"/>
      <point x="252" y="1044" type="curve" smooth="yes"/>
      <point x="252" y="1090"/>
      <point x="211" y="1116"/>
      <point x="162" y="1116" type="curve" smooth="yes"/>
      <point x="132" y="1116"/>
      <point x="102" y="1107"/>
      <point x="75" y="1088" type="curve"/>
      <point x="95" y="1050" type="line"/>
      <point x="111" y="1061"/>
      <point x="130" y="1067"/>
      <point x="147" y="1067" type="curve" smooth="yes"/>
      <point x="168" y="1067"/>
      <point x="184" y="1058"/>
      <point x="184" y="1038" type="curve" smooth="yes"/>
      <point x="184" y="1009"/>
      <point x="163" y="1002"/>
      <point x="142" y="1002" type="curve" smooth="yes"/>
      <point x="133" y="1002"/>
      <point x="124" y="1003"/>
      <point x="117" y="1005" type="curve"/>
    </contour>
  </outline>
</glyph>
<glyph name="circumflextilde.case" format="2">
  <advance width="291"/>
  <anchor x="143" y="728" name="_top"/>
  <outline>
    <contour>
      <point x="143" y="834" type="line"/>
      <point x="222" y="772" type="line"/>
      <point x="291" y="772" type="line"/>
      <point x="185" y="907" type="line"/>
      <point x="102" y="907" type="line"/>
      <point x="0" y="773" type="line"/>
      <point x="67" y="773" type="line"/>
    </contour>
    <contour>
      <point x="282" y="1031" type="curve"/>
      <point x="235" y="1031" type="line"/>
      <point x="230" y="1016"/>
      <point x="220" y="1005"/>
      <point x="204" y="1005" type="curve" smooth="yes"/>
      <point x="164" y="1005"/>
      <point x="145" y="1044"/>
      <point x="92" y="1044" type="curve" smooth="yes"/>
      <point x="37" y="1044"/>
      <point x="6" y="998"/>
      <point x="3" y="944" type="curve"/>
      <point x="52" y="944" type="line"/>
      <point x="54" y="957"/>
      <point x="64" y="971"/>
      <point x="81" y="971" type="curve" smooth="yes"/>
      <point x="132" y="971"/>
      <point x="145" y="932"/>
      <point x="202" y="932" type="curve" smooth="yes"/>
      <point x="254" y="932"/>
      <point x="280" y="981"/>
    </contour>
  </outline>
</glyph>
<glyph name="circumflextilde" format="2">
  <advance width="291"/>
  <anchor x="143" y="497" name="_top"/>
  <outline>
    <contour>
      <point x="143" y="661" type="line"/>
      <point x="222" y="579" type="line"/>
      <point x="291" y="579" type="line"/>
      <point x="185" y="734" type="line"/>
      <point x="102" y="734" type="line"/>
      <point x="0" y="580" type="line"/>
      <point x="67" y="580" type="line"/>
    </contour>
    <contour>
      <point x="287" y="860" type="curve"/>
      <point x="240" y="860" type="line"/>
      <point x="235" y="845"/>
      <point x="225" y="834"/>
      <point x="209" y="834" type="curve" smooth="yes"/>
      <point x="169" y="834"/>
      <point x="150" y="873"/>
      <point x="97" y="873" type="curve" smooth="yes"/>
      <point x="42" y="873"/>
      <point x="11" y="827"/>
      <point x="8" y="773" type="curve"/>
      <point x="57" y="773" type="line"/>
      <point x="59" y="786"/>
      <point x="69" y="800"/>
      <point x="86" y="800" type="curve" smooth="yes"/>
      <point x="137" y="800"/>
      <point x="150" y="761"/>
      <point x="207" y="761" type="curve" smooth="yes"/>
      <point x="259" y="761"/>
      <point x="285" y="810"/>
    </contour>
  </outline>
</glyph>
<glyph name="commaabove" format="2">
  <advance width="279"/>
  <anchor x="140" y="497" name="_top"/>
  <outline>
    <contour>
      <point x="134" y="782" type="curve" smooth="yes"/>
      <point x="106" y="782"/>
      <point x="82" y="761"/>
      <point x="82" y="732" type="curve" smooth="yes"/>
      <point x="82" y="691"/>
      <point x="124" y="683"/>
      <point x="124" y="661" type="curve" smooth="yes"/>
      <point x="124" y="639"/>
      <point x="97" y="616"/>
      <point x="83" y="601" type="curve"/>
      <point x="112" y="573" type="line"/>
      <point x="157" y="606"/>
      <point x="197" y="654"/>
      <point x="197" y="711" type="curve" smooth="yes"/>
      <point x="197" y="749"/>
      <point x="174" y="782"/>
    </contour>
  </outline>
</glyph>
<glyph name="commabelow" format="2">
  <advance width="235"/>
  <anchor x="113" y="0" name="_bottom"/>
  <outline>
    <contour>
      <point x="109" y="-77" type="curve" smooth="yes"/>
      <point x="81" y="-77"/>
      <point x="57" y="-98"/>
      <point x="57" y="-127" type="curve" smooth="yes"/>
      <point x="57" y="-168"/>
      <point x="99" y="-176"/>
      <point x="99" y="-198" type="curve" smooth="yes"/>
      <point x="99" y="-220"/>
      <point x="72" y="-243"/>
      <point x="58" y="-258" type="curve"/>
      <point x="87" y="-286" type="line"/>
      <point x="132" y="-253"/>
      <point x="172" y="-205"/>
      <point x="172" y="-148" type="curve" smooth="yes"/>
      <point x="172" y="-110"/>
      <point x="149" y="-77"/>
    </contour>
  </outline>
</glyph>
<glyph name="commaturnedabove" format="2">
  <advance width="279"/>
  <anchor x="140" y="497" name="_top"/>
  <outline>
    <contour>
      <point x="145" y="573" type="curve" smooth="yes"/>
      <point x="173" y="573"/>
      <point x="197" y="594"/>
      <point x="197" y="623" type="curve" smooth="yes"/>
      <point x="197" y="664"/>
      <point x="155" y="672"/>
      <point x="155" y="694" type="curve" smooth="yes"/>
      <point x="155" y="716"/>
      <point x="182" y="739"/>
      <point x="196" y="754" type="curve"/>
      <point x="167" y="782" type="line"/>
      <point x="122" y="749"/>
      <point x="82" y="701"/>
      <point x="82" y="644" type="curve" smooth="yes"/>
      <point x="82" y="606"/>
      <point x="105" y="573"/>
    </contour>
  </outline>
</glyph>
<glyph name="dblgrave" format="2">
  <advance width="380"/>
  <anchor x="257" y="497" name="_top"/>
  <outline>
    <contour>
      <point x="279" y="733" type="line"/>
      <point x="161" y="733" type="line"/>
      <point x="298" y="581" type="line"/>
      <point x="360" y="581" type="line"/>
    </contour>
    <contour>
      <point x="137" y="733" type="line"/>
      <point x="20" y="733" type="line"/>
      <point x="157" y="581" type="line"/>
      <point x="218" y="581" type="line"/>
    </contour>
  </outline>
</glyph>
<glyph name="dieresis.case" format="2">
  <advance width="276"/>
  <anchor x="138" y="728" name="_top"/>
  <outline>
    <contour>
      <point x="113" y="838" type="curve" smooth="yes"/>
      <point x="113" y="870"/>
      <point x="88" y="895"/>
      <point x="56" y="895" type="curve" smooth="yes"/>
      <point x="25" y="895"/>
      <point x="0" y="869"/>
      <point x="0" y="838" type="curve" smooth="yes"/>
      <point x="0" y="807"/>
      <point x="25" y="781"/>
      <point x="56" y="781" type="curve" smooth="yes"/>
      <point x="87" y="781"/>
      <point x="113" y="807"/>
    </contour>
    <contour>
      <point x="276" y="838" type="curve" smooth="yes"/>
      <point x="276" y="870"/>
      <point x="251" y="895"/>
      <point x="219" y="895" type="curve" smooth="yes"/>
      <point x="188" y="895"/>
      <point x="163" y="869"/>
      <point x="163" y="838" type="curve" smooth="yes"/>
      <point x="163" y="807"/>
      <point x="188" y="781"/>
      <point x="219" y="781" type="curve" smooth="yes"/>
      <point x="250" y="781"/>
      <point x="276" y="807"/>
    </contour>
  </outline>
</glyph>
<glyph name="dieresisacute" format="2">
  <advance width="296"/>
  <anchor x="148" y="497" name="_top"/>
  <outline>
    <contour>
      <point x="174" y="867" type="line"/>
      <point x="118" y="755" type="line"/>
      <point x="186" y="755" type="line"/>
      <point x="286" y="867" type="line"/>
    </contour>
    <contour>
      <point x="123" y="657" type="curve" smooth="yes"/>
      <point x="123" y="689"/>
      <point x="98" y="714"/>
      <point x="66" y="714" type="curve" smooth="yes"/>
      <point x="35" y="714"/>
      <point x="10" y="688"/>
      <point x="10" y="657" type="curve" smooth="yes"/>
      <point x="10" y="626"/>
      <point x="35" y="600"/>
      <point x="66" y="600" type="curve" smooth="yes"/>
      <point x="97" y="600"/>
      <point x="123" y="626"/>
    </contour>
    <contour>
      <point x="286" y="657" type="curve" smooth="yes"/>
      <point x="286" y="689"/>
      <point x="261" y="714"/>
      <point x="229" y="714" type="curve" smooth="yes"/>
      <point x="198" y="714"/>
      <point x="173" y="688"/>
      <point x="173" y="657" type="curve" smooth="yes"/>
      <point x="173" y="626"/>
      <point x="198" y="600"/>
      <point x="229" y="600" type="curve" smooth="yes"/>
      <point x="260" y="600"/>
      <point x="286" y="626"/>
    </contour>
  </outline>
</glyph>
<glyph name="dieresisbelow" format="2">
  <advance width="279"/>
  <anchor x="140" y="0" name="bottom"/>
  <outline>
    <contour>
      <point x="114" y="-120" type="curve" smooth="yes"/>
      <point x="114" y="-88"/>
      <point x="89" y="-63"/>
      <point x="57" y="-63" type="curve" smooth="yes"/>
      <point x="26" y="-63"/>
      <point x="1" y="-89"/>
      <point x="1" y="-120" type="curve" smooth="yes"/>
      <point x="1" y="-151"/>
      <point x="26" y="-177"/>
      <point x="57" y="-177" type="curve" smooth="yes"/>
      <point x="88" y="-177"/>
      <point x="114" y="-151"/>
    </contour>
    <contour>
      <point x="277" y="-120" type="curve" smooth="yes"/>
      <point x="277" y="-88"/>
      <point x="252" y="-63"/>
      <point x="220" y="-63" type="curve" smooth="yes"/>
      <point x="189" y="-63"/>
      <point x="164" y="-89"/>
      <point x="164" y="-120" type="curve" smooth="yes"/>
      <point x="164" y="-151"/>
      <point x="189" y="-177"/>
      <point x="220" y="-177" type="curve" smooth="yes"/>
      <point x="251" y="-177"/>
      <point x="277" y="-151"/>
    </contour>
  </outline>
</glyph>
<glyph name="dieresisgrave.case" format="2">
  <advance width="276"/>
  <anchor x="138" y="728" name="_top"/>
  <outline>
    <contour>
      <point x="117" y="1047" type="line"/>
      <point x="5" y="1047" type="line"/>
      <point x="105" y="935" type="line"/>
      <point x="173" y="935" type="line"/>
    </contour>
    <contour>
      <point x="163" y="838" type="curve" smooth="yes"/>
      <point x="163" y="807"/>
      <point x="189" y="781"/>
      <point x="220" y="781" type="curve" smooth="yes"/>
      <point x="251" y="781"/>
      <point x="276" y="807"/>
      <point x="276" y="838" type="curve" smooth="yes"/>
      <point x="276" y="869"/>
      <point x="251" y="895"/>
      <point x="220" y="895" type="curve" smooth="yes"/>
      <point x="188" y="895"/>
      <point x="163" y="870"/>
    </contour>
    <contour>
      <point x="0" y="838" type="curve" smooth="yes"/>
      <point x="0" y="807"/>
      <point x="26" y="781"/>
      <point x="57" y="781" type="curve" smooth="yes"/>
      <point x="88" y="781"/>
      <point x="113" y="807"/>
      <point x="113" y="838" type="curve" smooth="yes"/>
      <point x="113" y="869"/>
      <point x="88" y="895"/>
      <point x="57" y="895" type="curve" smooth="yes"/>
      <point x="25" y="895"/>
      <point x="0" y="870"/>
    </contour>
  </outline>
</glyph>
<glyph name="dieresismacron.case" format="2">
  <advance width="324"/>
  <anchor x="161" y="728" name="_top"/>
  <outline>
    <contour>
      <point x="10" y="1014" type="line"/>
      <point x="10" y="950" type="line"/>
      <point x="314" y="950" type="line"/>
      <point x="314" y="1014" type="line"/>
    </contour>
    <contour>
      <point x="136" y="839" type="curve" smooth="yes"/>
      <point x="136" y="871"/>
      <point x="111" y="896"/>
      <point x="79" y="896" type="curve" smooth="yes"/>
      <point x="48" y="896"/>
      <point x="23" y="870"/>
      <point x="23" y="839" type="curve" smooth="yes"/>
      <point x="23" y="808"/>
      <point x="48" y="782"/>
      <point x="79" y="782" type="curve" smooth="yes"/>
      <point x="110" y="782"/>
      <point x="136" y="808"/>
    </contour>
    <contour>
      <point x="299" y="839" type="curve" smooth="yes"/>
      <point x="299" y="871"/>
      <point x="274" y="896"/>
      <point x="242" y="896" type="curve" smooth="yes"/>
      <point x="211" y="896"/>
      <point x="186" y="870"/>
      <point x="186" y="839" type="curve" smooth="yes"/>
      <point x="186" y="808"/>
      <point x="211" y="782"/>
      <point x="242" y="782" type="curve" smooth="yes"/>
      <point x="273" y="782"/>
      <point x="299" y="808"/>
    </contour>
  </outline>
</glyph>
<glyph name="dotaccentmacron.case" format="2">
  <advance width="324"/>
  <anchor x="161" y="728" name="_top"/>
  <outline>
    <contour>
      <point x="10" y="1014" type="line"/>
      <point x="10" y="950" type="line"/>
      <point x="314" y="950" type="line"/>
      <point x="314" y="1014" type="line"/>
    </contour>
    <contour>
      <point x="217" y="839" type="curve" smooth="yes"/>
      <point x="217" y="871"/>
      <point x="192" y="896"/>
      <point x="160" y="896" type="curve" smooth="yes"/>
      <point x="129" y="896"/>
      <point x="104" y="870"/>
      <point x="104" y="839" type="curve" smooth="yes"/>
      <point x="104" y="808"/>
      <point x="129" y="782"/>
      <point x="160" y="782" type="curve" smooth="yes"/>
      <point x="191" y="782"/>
      <point x="217" y="808"/>
    </contour>
  </outline>
</glyph>
<glyph name="dotbelow" format="2">
  <advance width="279"/>
  <anchor x="140" y="0" name="_bottom"/>
  <outline>
    <contour>
      <point x="196" y="-120" type="curve" smooth="yes"/>
      <point x="196" y="-88"/>
      <point x="171" y="-63"/>
      <point x="139" y="-63" type="curve" smooth="yes"/>
      <point x="108" y="-63"/>
      <point x="83" y="-89"/>
      <point x="83" y="-120" type="curve" smooth="yes"/>
      <point x="83" y="-151"/>
      <point x="108" y="-177"/>
      <point x="139" y="-177" type="curve" smooth="yes"/>
      <point x="170" y="-177"/>
      <point x="196" y="-151"/>
    </contour>
  </outline>
</glyph>
<glyph name="f_f" format="2">
  <advance width="576"/>
  <outline>
    <contour>
      <point x="303" y="770" type="curve" smooth="yes"/>
      <point x="238" y="770"/>
      <point x="188" y="743"/>
      <point x="155" y="700" type="curve" smooth="yes"/>
      <point x="114" y="648"/>
      <point x="116" y="619"/>
      <point x="97" y="527" type="curve" smooth="yes"/>
      <point x="89" y="488"/>
      <point x="52" y="490"/>
      <point x="20" y="487" type="curve"/>
      <point x="20" y="435" type="line"/>
      <point x="95" y="435" type="line"/>
      <point x="95" y="0" type="line"/>
      <point x="177" y="0" type="line"/>
      <point x="177" y="435" type="line"/>
      <point x="302" y="435" type="line"/>
      <point x="407" y="497" type="line"/>
      <point x="177" y="497" type="line"/>
      <point x="177" y="585"/>
      <point x="188" y="708"/>
      <point x="305" y="708" type="curve" smooth="yes"/>
      <point x="329" y="708"/>
      <point x="359" y="699"/>
      <point x="377" y="683" type="curve"/>
      <point x="400" y="745" type="line"/>
      <point x="368" y="763"/>
      <point x="340" y="770"/>
    </contour>
    <contour>
      <point x="591" y="770" type="curve" smooth="yes"/>
      <point x="526" y="770"/>
      <point x="476" y="743"/>
      <point x="443" y="700" type="curve" smooth="yes"/>
      <point x="402" y="648"/>
      <point x="404" y="629"/>
      <point x="385" y="537" type="curve" smooth="yes"/>
      <point x="377" y="498"/>
      <point x="343" y="497"/>
      <point x="308" y="497" type="curve"/>
      <point x="283" y="435" type="line"/>
      <point x="383" y="435" type="line"/>
      <point x="383" y="0" type="line"/>
      <point x="465" y="0" type="line"/>
      <point x="465" y="435" type="line"/>
      <point x="590" y="435" type="line"/>
      <point x="608" y="497" type="line"/>
      <point x="465" y="497" type="line"/>
      <point x="465" y="585"/>
      <point x="476" y="708"/>
      <point x="593" y="708" type="curve" smooth="yes"/>
      <point x="617" y="708"/>
      <point x="647" y="699"/>
      <point x="665" y="683" type="curve"/>
      <point x="688" y="745" type="line"/>
      <point x="656" y="763"/>
      <point x="628" y="770"/>
    </contour>
  </outline>
</glyph>
<glyph name="f_f_i" format="2">
  <advance width="835"/>
  <outline>
    <contour>
      <point x="303" y="770" type="curve" smooth="yes"/>
      <point x="238" y="770"/>
      <point x="188" y="743"/>
      <point x="155" y="700" type="curve" smooth="yes"/>
      <point x="114" y="648"/>
      <point x="116" y="619"/>
      <point x="97" y="527" type="curve" smooth="yes"/>
      <point x="89" y="488"/>
      <point x="52" y="490"/>
      <point x="20" y="487" type="curve"/>
      <point x="20" y="435" type="line"/>
      <point x="95" y="435" type="line"/>
      <point x="95" y="0" type="line"/>
      <point x="177" y="0" type="line"/>
      <point x="177" y="435" type="line"/>
      <point x="415" y="435" type="line"/>
      <point x="407" y="497" type="line"/>
      <point x="177" y="497" type="line"/>
      <point x="177" y="585"/>
      <point x="188" y="708"/>
      <point x="305" y="708" type="curve" smooth="yes"/>
      <point x="329" y="708"/>
      <point x="359" y="699"/>
      <point x="377" y="683" type="curve"/>
      <point x="400" y="745" type="line"/>
      <point x="368" y="763"/>
      <point x="340" y="770"/>
    </contour>
    <contour>
      <point x="584" y="769" type="curve" smooth="yes"/>
      <point x="471" y="769"/>
      <point x="416" y="705"/>
      <point x="396" y="599" type="curve" smooth="yes"/>
      <point x="381" y="511"/>
      <point x="384" y="497"/>
      <point x="307" y="497" type="curve"/>
      <point x="307" y="435" type="line"/>
      <point x="382" y="435" type="line"/>
      <point x="382" y="-1" type="line"/>
      <point x="465" y="-1" type="line"/>
      <point x="465" y="434" type="line"/>
      <point x="672" y="434" type="line"/>
      <point x="672" y="-1" type="line"/>
      <point x="754" y="-1" type="line"/>
      <point x="754" y="497" type="line"/>
      <point x="464" y="497" type="line"/>
      <point x="464" y="596"/>
      <point x="474" y="707"/>
      <point x="586" y="707" type="curve" smooth="yes"/>
      <point x="633" y="707"/>
      <point x="658" y="677"/>
      <point x="667" y="631" type="curve"/>
      <point x="750" y="656" type="line"/>
      <point x="724" y="732"/>
      <point x="661" y="769"/>
    </contour>
  </outline>
</glyph>
<glyph name="f_f_l" format="2">
  <advance width="856"/>
  <outline>
    <contour>
      <point x="303" y="770" type="curve" smooth="yes"/>
      <point x="238" y="770"/>
      <point x="188" y="743"/>
      <point x="155" y="700" type="curve" smooth="yes"/>
      <point x="114" y="648"/>
      <point x="116" y="619"/>
      <point x="97" y="527" type="curve" smooth="yes"/>
      <point x="89" y="488"/>
      <point x="52" y="490"/>
      <point x="20" y="487" type="curve"/>
      <point x="20" y="435" type="line"/>
      <point x="95" y="435" type="line"/>
      <point x="95" y="0" type="line"/>
      <point x="177" y="0" type="line"/>
      <point x="177" y="435" type="line"/>
      <point x="405" y="435" type="line"/>
      <point x="407" y="497" type="line"/>
      <point x="177" y="497" type="line"/>
      <point x="177" y="585"/>
      <point x="188" y="708"/>
      <point x="305" y="708" type="curve" smooth="yes"/>
      <point x="329" y="708"/>
      <point x="359" y="699"/>
      <point x="377" y="683" type="curve"/>
      <point x="400" y="745" type="line"/>
      <point x="368" y="763"/>
      <point x="340" y="770"/>
    </contour>
    <contour>
      <point x="594" y="769" type="curve" smooth="yes"/>
      <point x="482" y="769"/>
      <point x="415" y="704"/>
      <point x="396" y="599" type="curve" smooth="yes"/>
      <point x="381" y="508"/>
      <point x="370" y="497"/>
      <point x="308" y="497" type="curve"/>
      <point x="308" y="435" type="line"/>
      <point x="383" y="435" type="line"/>
      <point x="383" y="-1" type="line"/>
      <point x="465" y="-1" type="line"/>
      <point x="465" y="434" type="line"/>
      <point x="590" y="434" type="line"/>
      <point x="608" y="497" type="line"/>
      <point x="465" y="497" type="line"/>
      <point x="465" y="586"/>
      <point x="469" y="707"/>
      <point x="596" y="707" type="curve" smooth="yes"/>
      <point x="637" y="707"/>
      <point x="689" y="682"/>
      <point x="689" y="635" type="curve" smooth="yes"/>
      <point x="689" y="-1" type="line"/>
      <point x="771" y="-1" type="line"/>
      <point x="771" y="764" type="line"/>
      <point x="706" y="738" type="line"/>
      <point x="678" y="759"/>
      <point x="628" y="769"/>
    </contour>
  </outline>
</glyph>
<glyph name="f_iacute" format="2">
  <advance width="540"/>
  <outline>
    <contour>
      <point x="303" y="770" type="curve" smooth="yes"/>
      <point x="168" y="770"/>
      <point x="114" y="677"/>
      <point x="100" y="539" type="curve" smooth="yes"/>
      <point x="95" y="488"/>
      <point x="52" y="490"/>
      <point x="20" y="487" type="curve"/>
      <point x="20" y="435" type="line"/>
      <point x="95" y="435" type="line"/>
      <point x="95" y="0" type="line"/>
      <point x="177" y="0" type="line"/>
      <point x="177" y="435" type="line"/>
      <point x="402" y="435" type="line"/>
      <point x="420" y="497" type="line"/>
      <point x="177" y="497" type="line"/>
      <point x="177" y="585"/>
      <point x="188" y="708"/>
      <point x="305" y="708" type="curve" smooth="yes"/>
      <point x="325" y="708"/>
      <point x="349" y="702"/>
      <point x="367" y="690" type="curve"/>
      <point x="400" y="745" type="line"/>
      <point x="368" y="763"/>
      <point x="340" y="770"/>
    </contour>
    <contour>
      <point x="372" y="438" type="curve" smooth="yes"/>
      <point x="372" y="0" type="line"/>
      <point x="455" y="0" type="line"/>
      <point x="455" y="497" type="line"/>
      <point x="360" y="497" type="line"/>
      <point x="361" y="491"/>
      <point x="372" y="440"/>
    </contour>
    <contour>
      <point x="467" y="733" type="line"/>
      <point x="371" y="581" type="line"/>
      <point x="449" y="581" type="line"/>
      <point x="589" y="733" type="line"/>
    </contour>
  </outline>
</glyph>
<glyph name="five.lf" format="2">
  <advance width="436"/>
  <guideline x="361" y="419" angle="90"/>
  <guideline x="265" y="419" angle="90"/>
  <outline>
    <contour>
      <point x="121" y="697" type="line"/>
      <point x="59" y="450" type="line"/>
      <point x="212" y="411"/>
      <point x="265" y="335"/>
      <point x="265" y="231" type="curve" smooth="yes"/>
      <point x="265" y="116"/>
      <point x="200" y="45"/>
      <point x="77" y="45" type="curve" smooth="yes"/>
      <point x="58" y="45"/>
      <point x="37" y="46"/>
      <point x="15" y="50" type="curve"/>
      <point x="2" y="0" type="line"/>
      <point x="32" y="-8"/>
      <point x="61" y="-11"/>
      <point x="89" y="-11" type="curve" smooth="yes"/>
      <point x="238" y="-11"/>
      <point x="360" y="89"/>
      <point x="360" y="235" type="curve" smooth="yes"/>
      <point x="360" y="351"/>
      <point x="297" y="445"/>
      <point x="138" y="492" type="curve"/>
      <point x="168" y="612" type="line"/>
      <point x="390" y="612" type="line"/>
      <point x="414" y="697" type="line"/>
    </contour>
  </outline>
</glyph>
<glyph name="grave.case" format="2">
  <advance width="278"/>
  <anchor x="205" y="728" name="_top"/>
  <outline>
    <contour>
      <point x="152" y="905" type="line"/>
      <point x="30" y="905" type="line"/>
      <point x="170" y="774" type="line"/>
      <point x="248" y="774" type="line"/>
    </contour>
  </outline>
</glyph>
<glyph name="horn.case" format="2">
  <advance width="284"/>
  <anchor x="-32" y="728" name="_topright"/>
  <outline>
    <contour>
      <point x="45" y="721" type="curve"/>
      <point x="45" y="660" type="line"/>
      <point x="201" y="624"/>
      <point x="271" y="743"/>
      <point x="264" y="843" type="curve"/>
      <point x="165" y="843" type="line"/>
      <point x="175" y="758"/>
      <point x="130" y="691"/>
    </contour>
  </outline>
</glyph>
<glyph name="ijacute" format="2">
  <advance width="503"/>
  <outline>
    <contour>
      <point x="84" y="438" type="curve" smooth="yes"/>
      <point x="84" y="0" type="line"/>
      <point x="167" y="0" type="line"/>
      <point x="167" y="497" type="line"/>
      <point x="72" y="497" type="line"/>
      <point x="73" y="491"/>
      <point x="84" y="440"/>
    </contour>
    <contour>
      <point x="419" y="497" type="line"/>
      <point x="323" y="497" type="line"/>
      <point x="336" y="438" type="line"/>
      <point x="336" y="13" type="line" smooth="yes"/>
      <point x="336" y="-59"/>
      <point x="336" y="-150"/>
      <point x="263" y="-188" type="curve"/>
      <point x="277" y="-228" type="line"/>
      <point x="401" y="-211"/>
      <point x="419" y="-77"/>
      <point x="419" y="25" type="curve" smooth="yes"/>
    </contour>
    <contour>
      <point x="173" y="733" type="line"/>
      <point x="77" y="581" type="line"/>
      <point x="155" y="581" type="line"/>
      <point x="295" y="733" type="line"/>
    </contour>
    <contour>
      <point x="429" y="733" type="line"/>
      <point x="333" y="581" type="line"/>
      <point x="411" y="581" type="line"/>
      <point x="551" y="733" type="line"/>
    </contour>
  </outline>
</glyph>
<glyph name="macron.case" format="2">
  <advance width="304"/>
  <anchor x="153" y="728" name="_top"/>
  <outline>
    <contour>
      <point x="0" y="871" type="line"/>
      <point x="0" y="807" type="line"/>
      <point x="304" y="807" type="line"/>
      <point x="304" y="871" type="line"/>
    </contour>
  </outline>
</glyph>
<glyph name="one.lf" format="2">
  <advance width="457"/>
  <outline>
    <contour>
      <point x="67" y="67" type="line"/>
      <point x="67" y="-1" type="line"/>
      <point x="410" y="-1" type="line"/>
      <point x="410" y="67" type="line"/>
      <point x="282" y="67" type="line"/>
      <point x="282" y="697" type="line"/>
      <point x="232" y="697" type="line"/>
      <point x="46" y="614" type="line"/>
      <point x="64" y="567" type="line"/>
      <point x="199" y="599" type="line"/>
      <point x="199" y="67" type="line"/>
    </contour>
  </outline>
</glyph>
<glyph name="periodcentered.loclCAT.case" format="2">
  <advance width="293"/>
  <anchor x="-55" y="341" name="_center"/>
  <outline>
    <contour>
      <point x="262" y="360" type="curve" smooth="yes"/>
      <point x="262" y="396"/>
      <point x="232" y="427"/>
      <point x="196" y="427" type="curve" smooth="yes"/>
      <point x="159" y="427"/>
      <point x="130" y="397"/>
      <point x="130" y="360" type="curve" smooth="yes"/>
      <point x="130" y="324"/>
      <point x="160" y="295"/>
      <point x="196" y="295" type="curve" smooth="yes"/>
      <point x="232" y="295"/>
      <point x="262" y="324"/>
    </contour>
  </outline>
</glyph>
<glyph name="ring.case" format="2">
  <advance width="282"/>
  <anchor x="141" y="728" name="_top"/>
  <outline>
    <contour>
      <point x="141" y="989" type="curve" smooth="yes"/>
      <point x="87" y="989"/>
      <point x="42" y="943"/>
      <point x="42" y="889" type="curve" smooth="yes"/>
      <point x="42" y="835"/>
      <point x="87" y="790"/>
      <point x="141" y="790" type="curve" smooth="yes"/>
      <point x="195" y="790"/>
      <point x="240" y="835"/>
      <point x="240" y="889" type="curve" smooth="yes"/>
      <point x="240" y="944"/>
      <point x="196" y="989"/>
    </contour>
    <contour>
      <point x="141" y="937" type="curve" smooth="yes"/>
      <point x="167" y="937"/>
      <point x="189" y="915"/>
      <point x="189" y="889" type="curve" smooth="yes"/>
      <point x="189" y="863"/>
      <point x="167" y="841"/>
      <point x="141" y="841" type="curve" smooth="yes"/>
      <point x="114" y="841"/>
      <point x="93" y="862"/>
      <point x="93" y="889" type="curve" smooth="yes"/>
      <point x="93" y="916"/>
      <point x="114" y="937"/>
    </contour>
  </outline>
</glyph>
<glyph name="seven.lf" format="2">
  <advance width="475"/>
  <outline>
    <contour>
      <point x="55" y="697" type="line"/>
      <point x="35" y="622" type="line"/>
      <point x="354" y="622" type="line"/>
      <point x="71" y="0" type="line"/>
      <point x="173" y="0" type="line"/>
      <point x="435" y="655" type="line"/>
      <point x="435" y="697" type="line"/>
    </contour>
  </outline>
</glyph>
<glyph name="six.lf" format="2">
  <advance width="566"/>
  <outline>
    <contour>
      <point x="444" y="712" type="line"/>
      <point x="239" y="644"/>
      <point x="64" y="473"/>
      <point x="64" y="235" type="curve" smooth="yes"/>
      <point x="64" y="66"/>
      <point x="168" y="-13"/>
      <point x="279" y="-13" type="curve" smooth="yes"/>
      <point x="431" y="-13"/>
      <point x="510" y="109"/>
      <point x="510" y="224" type="curve" smooth="yes"/>
      <point x="510" y="350"/>
      <point x="421" y="425"/>
      <point x="317" y="425" type="curve" smooth="yes"/>
      <point x="265" y="425"/>
      <point x="210" y="406"/>
      <point x="161" y="366" type="curve"/>
      <point x="149" y="302" type="line"/>
      <point x="196" y="339"/>
      <point x="244" y="357"/>
      <point x="287" y="357" type="curve" smooth="yes"/>
      <point x="360" y="357"/>
      <point x="415" y="305"/>
      <point x="415" y="207" type="curve" smooth="yes"/>
      <point x="415" y="129"/>
      <point x="371" y="50"/>
      <point x="287" y="50" type="curve" smooth="yes"/>
      <point x="209" y="50"/>
      <point x="160" y="132"/>
      <point x="160" y="239" type="curve" smooth="yes"/>
      <point x="160" y="387"/>
      <point x="230" y="568"/>
      <point x="465" y="665" type="curve"/>
    </contour>
  </outline>
</glyph>
<glyph name="slashshortcomb.case" format="2">
  <anchor x="143" y="343" name="_center"/>
  <outline>
    <contour>
      <point x="8" y="241" type="line"/>
      <point x="385" y="416" type="line"/>
      <point x="385" y="485" type="line"/>
      <point x="8" y="310" type="line"/>
    </contour>
  </outline>
</glyph>
<glyph name="tildemacron.case" format="2">
  <advance width="357"/>
  <anchor x="181" y="728" name="_top"/>
  <outline>
    <contour>
      <point x="337" y="882" type="curve"/>
      <point x="290" y="882" type="line"/>
      <point x="285" y="867"/>
      <point x="270" y="856"/>
      <point x="254" y="856" type="curve" smooth="yes"/>
      <point x="214" y="856"/>
      <point x="167" y="895"/>
      <point x="114" y="895" type="curve" smooth="yes"/>
      <point x="59" y="895"/>
      <point x="26" y="844"/>
      <point x="20" y="795" type="curve"/>
      <point x="69" y="795" type="line"/>
      <point x="75" y="809"/>
      <point x="86" y="822"/>
      <point x="103" y="822" type="curve" smooth="yes"/>
      <point x="154" y="822"/>
      <point x="195" y="783"/>
      <point x="252" y="783" type="curve" smooth="yes"/>
      <point x="304" y="783"/>
      <point x="332" y="837"/>
    </contour>
    <contour>
      <point x="26" y="1012" type="line"/>
      <point x="26" y="948" type="line"/>
      <point x="330" y="948" type="line"/>
      <point x="330" y="1012" type="line"/>
    </contour>
  </outline>
</glyph>
<glyph name="zero.lf.zero" format="2">
  <advance width="620"/>
  <outline>
    <contour>
      <point x="131" y="140" type="line"/>
      <point x="171" y="89" type="line"/>
      <point x="485" y="570" type="line"/>
      <point x="443" y="620" type="line"/>
    </contour>
    <component base="zero.lf"/>
  </outline>
</glyph>
<glyph name="zero.tosf.zero" format="2">
  <advance width="600"/>
  <outline>
    <contour>
      <point x="150" y="76" type="line"/>
      <point x="195" y="41" type="line"/>
      <point x="437" y="431" type="line"/>
      <point x="391" y="464" type="line"/>
    </contour>
    <component base="zero" xOffset="10"/>
  </outline>
</glyph>
<glyph name="zero.zero" format="2">
  <advance width="580"/>
  <outline>
    <contour>
      <point x="140" y="76" type="line"/>
      <point x="185" y="41" type="line"/>
      <point x="427" y="431" type="line"/>
      <point x="381" y="464" type="line"/>
    </contour>
    <component base="zero"/>
  </outline>
</glyph>
